<svg width="160" height="160" viewBox="0 0 160 160" fill="none" xmlns="http://www.w3.org/2000/svg">
<g clip-path="url(#clip0_219_724)">
<path fill-rule="evenodd" clip-rule="evenodd" d="M100.32 23.8555C99.974 23.8891 99.6624 23.9563 99.3509 24.0571C99.697 24.1579 100.078 24.2251 100.459 24.3259C100.805 24.3931 101.186 24.4939 101.532 24.5611C101.532 24.2251 101.289 23.8891 100.355 23.8555H100.32Z" fill="#B1291D" fill-opacity="0.9"/>
<path fill-rule="evenodd" clip-rule="evenodd" d="M107.244 27.5178C107.624 27.4842 107.763 26.7115 107.867 26.2075C107.867 27.7194 108.421 26.9131 109.009 26.2075C109.009 26.1403 109.009 26.1067 109.009 26.0395C107.624 23.9227 106.378 24.8635 104.82 25.5691C105.72 26.0059 106.586 26.5771 107.244 27.5178Z" fill="#B1291D" fill-opacity="0.9"/>
<path fill-rule="evenodd" clip-rule="evenodd" d="M110.186 24.2587C109.667 23.6203 109.459 23.2171 110.082 24.2923C110.082 24.2923 110.151 24.2923 110.186 24.2587Z" fill="#B1291D" fill-opacity="0.9"/>
<path fill-rule="evenodd" clip-rule="evenodd" d="M132.825 47.1743L132.929 47.0391C132.929 47.0391 132.825 47.0729 132.79 47.1067V47.1743H132.825Z" fill="#B1291D" fill-opacity="0.9"/>
<path fill-rule="evenodd" clip-rule="evenodd" d="M130.714 42.436L130.887 41.9656C130.402 42.1672 129.987 42.3016 130.714 42.436Z" fill="#B1291D" fill-opacity="0.9"/>
<path fill-rule="evenodd" clip-rule="evenodd" d="M65.5994 28.1898C65.9109 26.4762 66.2225 24.8298 66.4302 23.7211L64.8378 25.4346L64.0416 24.4939C63.1069 25.401 62.7262 27.249 62.5531 29.265C63.557 28.8954 64.5262 28.5258 65.5647 28.1898H65.5994Z" fill="#B1291D" fill-opacity="0.9"/>
<path fill-rule="evenodd" clip-rule="evenodd" d="M34.2017 52.6501C34.2017 52.6501 34.0978 52.5157 34.0286 52.4149C33.9247 52.6837 33.8555 52.9525 33.8209 53.2549C33.9247 53.0533 34.0632 52.8517 34.2017 52.6501Z" fill="#B1291D" fill-opacity="0.9"/>
<path fill-rule="evenodd" clip-rule="evenodd" d="M30.1514 61.05C29.459 60.6468 28.7667 60.4116 28.0743 60.8148C28.2128 60.9828 28.3513 61.1508 28.4897 61.3524C28.8705 61.6212 29.2859 61.89 29.7013 62.1924C29.8398 61.8228 29.9783 61.4196 30.1167 61.05H30.1514Z" fill="#B1291D" fill-opacity="0.9"/>
<path fill-rule="evenodd" clip-rule="evenodd" d="M46.9407 37.9672C46.3868 37.396 45.8675 36.8585 45.556 36.3881C45.7637 37.1272 46.006 37.8328 46.2483 38.5384C46.4906 38.3368 46.6984 38.1352 46.9407 37.9336V37.9672Z" fill="#B1291D" fill-opacity="0.9"/>
<path fill-rule="evenodd" clip-rule="evenodd" d="M76.9883 26.0059V24.326L77.1614 26.0059C77.7845 25.9387 78.4076 25.9387 78.9961 25.9051C78.2345 24.6956 75.0151 22.7468 74.7728 22.646C74.6343 23.318 74.7382 24.6956 74.9113 26.2747C75.6036 26.1739 76.2613 26.0731 76.9883 26.0059Z" fill="#B1291D" fill-opacity="0.9"/>
<path fill-rule="evenodd" clip-rule="evenodd" d="M0.346257 88.8366L2.25019 91.8605C2.49251 91.4237 3.04638 90.7182 3.7041 89.9118C3.25408 89.5422 2.83868 89.2062 2.49251 88.9038C1.454 88.5678 0.657804 88.3662 0.380868 88.8366H0.346257Z" fill="#B1291D" fill-opacity="0.9"/>
<path fill-rule="evenodd" clip-rule="evenodd" d="M9.65806 53.2549C9.65806 53.2549 9.72729 53.1877 9.72729 53.1205L9.45035 52.9525C9.45035 52.9525 9.58883 53.1541 9.65806 53.2549Z" fill="#B1291D" fill-opacity="0.9"/>
<path fill-rule="evenodd" clip-rule="evenodd" d="M116.036 33.3305C116.14 32.7929 116.313 32.4905 116.521 32.2553C116.452 32.2217 116.383 32.1881 116.313 32.1545C116.002 32.5913 115.794 32.9609 116.071 33.3305H116.036Z" fill="#B1291D" fill-opacity="0.9"/>
<path fill-rule="evenodd" clip-rule="evenodd" d="M116.59 6.51825C116.59 6.51825 116.59 6.88784 116.452 7.19024C116.452 7.19024 116.521 7.19024 116.556 7.15664C116.66 6.95504 116.729 6.71984 116.694 6.45105C116.66 6.48465 116.625 6.48465 116.59 6.51825Z" fill="#B1291D" fill-opacity="0.9"/>
<path fill-rule="evenodd" clip-rule="evenodd" d="M86.7157 160C87.1312 160 87.5466 159.933 87.9966 159.899C87.4773 159.664 86.8542 159.496 86.3696 159.563C86.5773 159.698 86.7157 159.866 86.7504 160H86.7157Z" fill="#B1291D" fill-opacity="0.9"/>
<path fill-rule="evenodd" clip-rule="evenodd" d="M28.5246 61.3524C27.6937 60.7812 27.036 60.3444 26.6206 60.546C26.8283 61.4196 27.0014 62.2932 27.2783 63.0996C27.6591 62.898 28.3861 62.6292 29.2861 62.3604C29.0092 61.9908 28.7669 61.6548 28.5246 61.3524Z" fill="#B1291D" fill-opacity="0.9"/>
<path fill-rule="evenodd" clip-rule="evenodd" d="M147.503 34.2713C147.503 34.2713 147.434 33.9689 147.365 33.8009L145.288 35.3465V35.4137C145.738 35.3129 146.569 34.8761 147.469 34.3049L147.503 34.2713Z" fill="#B1291D" fill-opacity="0.9"/>
<path fill-rule="evenodd" clip-rule="evenodd" d="M127.079 42.6376C127.91 41.1592 128.014 41.428 128.464 41.6296H128.706L127.183 39.3448L126.975 39.4792C126.975 39.4792 126.872 39.6136 126.837 39.7144C127.46 40.5208 127.737 41.4952 127.079 42.6712V42.6376Z" fill="#B1291D" fill-opacity="0.9"/>
<path fill-rule="evenodd" clip-rule="evenodd" d="M92.116 136.279C92.116 136.279 91.9775 136.346 91.8391 136.447L92.3237 136.783C92.3929 136.581 92.4622 136.38 92.4622 136.245C92.3583 136.245 92.2545 136.245 92.1506 136.245L92.116 136.279Z" fill="#B1291D" fill-opacity="0.9"/>
<path fill-rule="evenodd" clip-rule="evenodd" d="M86.4735 24.7291C86.0927 24.9307 85.6773 25.3675 85.3311 25.9051C85.7812 25.9051 86.2658 25.9051 86.7158 25.9723C86.5774 25.6027 86.4389 25.1323 86.5081 24.7291H86.4735Z" fill="#B1291D" fill-opacity="0.9"/>
<path fill-rule="evenodd" clip-rule="evenodd" d="M56.5642 24.0907C56.2873 24.0907 55.8719 23.8891 55.4218 23.6875C54.8334 23.5867 54.2449 23.6875 53.691 24.2587L54.7641 25.569C55.3526 24.897 56.045 24.3595 56.5642 24.1243V24.0907Z" fill="#B1291D" fill-opacity="0.9"/>
<path fill-rule="evenodd" clip-rule="evenodd" d="M5.12329 87.9966C3.73861 87.4254 2.35393 87.0558 1.80006 88.3998C2.00776 88.5342 2.21547 88.7022 2.45779 88.9038C2.94243 89.0718 3.46168 89.2734 4.05017 89.4414C4.39634 88.971 4.77712 88.467 5.12329 87.9966Z" fill="#B1291D" fill-opacity="0.9"/>
<path fill-rule="evenodd" clip-rule="evenodd" d="M99.8355 2.92319L100.562 4.09917C100.286 3.49438 100.009 2.82239 99.8355 2.92319Z" fill="#B1291D" fill-opacity="0.9"/>
<path fill-rule="evenodd" clip-rule="evenodd" d="M111.121 5.47668C111.121 5.47668 111.121 5.47668 111.086 5.47668L111.017 5.98067C110.428 6.68626 109.944 6.85426 109.494 6.85426C109.736 7.35825 110.082 7.72784 111.675 7.72784C112.886 7.25745 112.021 6.31667 111.121 5.51028V5.47668Z" fill="#B1291D" fill-opacity="0.9"/>
<path fill-rule="evenodd" clip-rule="evenodd" d="M133.379 22.2091C132.687 22.9147 133.656 22.3771 134.002 22.2091C134.279 21.7051 134.903 21.0332 133.379 22.2091Z" fill="#B1291D" fill-opacity="0.9"/>
<path fill-rule="evenodd" clip-rule="evenodd" d="M149.649 41.3607C149.649 41.3607 149.615 41.3607 149.58 41.3607L149.51 41.4621C149.51 41.4621 149.58 41.4283 149.649 41.3945V41.3607Z" fill="#B1291D" fill-opacity="0.9"/>
<path fill-rule="evenodd" clip-rule="evenodd" d="M143.176 27.0139C143.418 26.6443 143.384 26.5099 143.211 26.5099C142.795 27.0139 142.657 27.2827 143.176 27.0139Z" fill="#B1291D" fill-opacity="0.9"/>
<path fill-rule="evenodd" clip-rule="evenodd" d="M104.682 3.15833C104.509 4.5359 104.682 4.6031 104.89 4.6703C104.959 4.6703 105.028 4.6703 105.097 4.6703C104.89 4.4687 104.717 4.06551 104.682 3.19192V3.15833Z" fill="#B1291D" fill-opacity="0.9"/>
<path fill-rule="evenodd" clip-rule="evenodd" d="M107.659 7.25741C108.005 7.08941 108.282 6.92141 108.49 6.75342C108.178 6.75342 107.867 6.75342 107.555 6.98861L107.659 7.25741Z" fill="#B1291D" fill-opacity="0.9"/>
<path fill-rule="evenodd" clip-rule="evenodd" d="M0.415527 91.9614C0.242442 91.8942 0.138581 91.827 0.000113249 91.7262C0.000113249 91.9278 0.0693563 92.0958 0.103973 92.2974C0.207825 92.163 0.311676 92.0622 0.415527 91.9614Z" fill="#B1291D" fill-opacity="0.9"/>
<path fill-rule="evenodd" clip-rule="evenodd" d="M3.42716 105.334C3.66948 106.073 3.94642 106.812 4.22335 107.551C4.25797 106.543 4.53491 105.737 3.42716 105.334Z" fill="#B1291D" fill-opacity="0.9"/>
<path fill-rule="evenodd" clip-rule="evenodd" d="M29.7014 62.226C29.7014 62.226 29.3899 62.3267 29.2514 62.3603C29.3206 62.4611 29.4245 62.5955 29.5283 62.6963C29.5976 62.5283 29.6322 62.3939 29.7014 62.226Z" fill="#B1291D" fill-opacity="0.9"/>
<path fill-rule="evenodd" clip-rule="evenodd" d="M112.817 5.3759C112.886 6.01428 112.886 6.61907 112.852 7.22386C113.094 6.51828 112.955 5.74549 113.336 5.1071C113.198 5.0063 113.025 5.1407 112.817 5.3759Z" fill="#B1291D" fill-opacity="0.9"/>
<path fill-rule="evenodd" clip-rule="evenodd" d="M61.5146 5.94704L61.7915 6.31664C61.7915 5.84625 61.7915 5.40945 61.5146 5.94704Z" fill="#B1291D" fill-opacity="0.9"/>
<path fill-rule="evenodd" clip-rule="evenodd" d="M20.8742 123.982C21.3588 125.023 21.255 126.065 22.9512 124.99C23.1935 123.982 21.5665 124.082 20.8742 123.982Z" fill="#B1291D" fill-opacity="0.9"/>
<path fill-rule="evenodd" clip-rule="evenodd" d="M5.91946 84.8719C5.64252 85.6111 5.67714 86.2495 5.91946 86.7535C6.36948 85.8799 6.54256 85.1743 5.91946 84.8719Z" fill="#B1291D" fill-opacity="0.9"/>
<path fill-rule="evenodd" clip-rule="evenodd" d="M159.135 70.357C159.135 70.357 159.135 70.357 159.1 70.3234C158.823 70.3234 158.581 70.4242 158.338 70.4914C158.615 70.6594 158.858 70.7602 159.169 70.357H159.135Z" fill="#B1291D" fill-opacity="0.9"/>
<path fill-rule="evenodd" clip-rule="evenodd" d="M94.0199 152.071L94.1583 153.683C95.7161 152.944 95.7853 150.155 97.2046 151.936C98.3816 150.727 94.5737 150.055 97.62 149.181C98.3124 149.954 99.6278 150.256 100.632 150.357C101.393 149.383 99.3509 148.677 98.8316 149.047C102.847 147.131 103.505 153.616 106.828 149.786C104.924 149.383 106.413 146.56 103.401 147.938C104.336 146.56 107.382 148.677 108.178 146.157V148.576C108.801 148.274 109.113 147.199 109.286 146.795L110.013 148.24C110.601 144.578 114.859 146.762 114.202 142.797C114.825 145.855 115.898 141.52 117.594 141.856C116.521 144.847 111.882 145.384 113.163 147.736C114.479 147.871 114.513 146.258 115.829 146.359C116.175 145.687 116.452 145.418 116.071 146.359C115.967 146.359 115.898 146.359 115.829 146.359C115.448 147.064 114.998 148.207 115.067 148.811C118.806 148.207 118.771 144.544 120.433 142.797C119.36 143.637 118.356 144.477 117.352 145.317C116.14 142.898 118.563 144.04 118.459 141.655C120.952 141.89 121.471 139.269 123.514 139.336C123.098 139.504 123.167 139.773 122.752 139.941C126.975 137.992 129.502 141.789 131.06 141.218C132.687 140.949 134.487 138.463 133.068 137.892C133.379 137.32 132.479 137.992 131.406 138.328C130.333 138.631 129.191 138.564 129.502 136.581C131.268 138.026 132.133 137.253 132.964 136.212C133.795 135.17 134.453 133.994 136.876 133.793C136.391 136.044 139.23 134.8 138.607 136.716C140.095 135.103 139.68 134.565 139.541 133.154L140.891 133.557C140.58 129.66 139.541 131.474 140.787 127.476C140.787 129.156 143.245 127.207 143.384 128.551C144.145 127.644 144.457 126.468 144.249 125.359L144.318 125.594C145.98 121.596 147.572 123.276 148.23 119.009H147.365C147.884 113.364 152.35 107.451 153.25 102.344L152.003 103.822C152.592 103.419 152.142 100.193 153.7 99.0844C153.7 98.9164 153.769 98.8156 153.942 98.9164C153.838 98.95 153.769 99.0508 153.7 99.0844C153.7 99.3868 153.838 100.025 153.63 100.26C154.461 100.496 155.915 100.26 156.469 99.1516L155.327 98.3452L156.434 98.1436C156.919 96.3629 154.496 98.1772 154.946 96.4636C155.673 96.4636 156.157 96.0941 156.573 95.6573L156.746 95.4557C157.334 94.6829 157.646 93.5741 157.819 92.3981C157.923 91.8605 157.992 91.2894 158.096 90.7518C158.061 90.7518 158.027 90.7518 157.992 90.7854C158.027 90.7518 158.061 90.7182 158.096 90.651C158.338 89.2062 158.754 87.8622 159.965 87.291C157.3 85.8799 159.377 90.987 156.954 89.3742C157.404 88.8366 157.923 88.6014 158.2 87.3246L156.538 87.6942C157.646 81.9151 158.858 79.2944 158.2 73.8513L158.581 74.0529C158.719 73.5489 158.788 73.1121 158.788 72.7089C158.2 72.6081 157.404 72.5745 157.265 72.3393L158.546 71.4658C158.373 71.1298 158.096 70.8274 157.715 70.5586C157.715 70.5586 157.646 70.5586 157.611 70.5586C157.611 70.5586 157.611 70.4914 157.611 70.4578C157.473 70.357 157.369 70.2562 157.231 70.189C157.334 70.1218 157.438 70.0882 157.542 70.0882C156.919 67.4674 158.927 64.4435 156.815 62.5955C157.438 61.9571 158.373 62.0243 158.927 61.8227C158.892 61.7555 158.823 61.6547 158.754 61.5875C156.781 62.3603 157.161 58.866 155.361 60.042C158.442 58.3956 155.223 56.4468 159.827 55.8085C159.827 54.5653 157.681 55.3045 157.334 55.7413C157.161 54.3637 156.884 53.2549 155.188 52.5493C156.054 51.5077 152.315 46.8374 155.188 44.6871C153.284 46.1655 154.046 44.9559 152.869 44.5191L151.207 45.7959L150.826 44.0487C150.515 43.7799 150.584 43.6455 150.757 43.6119C150.757 43.3095 151.865 43.3095 152.073 42.4359C152.073 42.3351 151.969 42.2679 151.934 42.2007C150.896 42.8727 150.03 43.4775 149.476 43.9143C148.299 44.6199 150.515 42.8391 150.549 42.6375C152.142 41.0584 148.68 42.9063 149.199 42.1335L150.411 41.7303C150.411 41.7303 150.515 41.5287 150.411 41.4615C150.273 41.4615 150.099 41.4279 149.961 41.3943C149.788 41.3943 149.58 41.4615 149.373 41.5287L149.303 41.5959V41.5287H149.199C149.199 41.5287 149.269 41.5287 149.269 41.4951L149.13 41.2935C148.196 41.6295 147.538 41.4615 146.084 42.4695V41.2599C146.084 41.2599 146.88 41.3607 147.676 40.6552C147.33 40.3528 147.815 40.2856 148.403 39.5464C148.68 39.4456 148.992 39.3112 149.338 39.1768C149.373 39.1432 149.373 39.1096 149.442 39.0424C149.442 39.076 149.476 39.076 149.511 39.1096C150.03 38.908 150.619 38.6392 151.242 38.3704L151.034 37.6648C150.169 38.1352 149.407 38.5048 148.922 38.7736L148.819 38.8408C148.749 38.8744 148.646 38.9416 148.611 38.9416C148.611 38.8744 148.715 38.8072 148.784 38.7064C148.646 38.3032 148.507 37.9 148.369 37.4968C147.988 37.5976 147.746 37.6312 147.746 37.396L147.157 38.1352C146.742 38.2024 147.019 37.1608 146.43 37.6312C146.776 37.2952 147.399 36.8248 148.022 36.3544C148.022 36.2201 147.953 36.1193 147.919 35.9849L146.361 36.6568C146.534 36.5896 147.157 36.1865 147.849 35.7161C147.849 35.6153 147.78 35.4809 147.746 35.3801C146.984 35.8505 146.292 36.2872 146.153 36.4888C147.226 35.3129 147.192 35.2793 147.607 34.8425C147.607 34.7081 147.538 34.6073 147.503 34.4729C146.707 35.0441 145.876 35.7161 145.738 35.8841C144.768 36.0857 145.011 35.6489 145.184 35.3129H145.115L145.218 35.2457C145.426 34.8761 145.53 34.6073 143.834 35.4473L147.226 33.4985C147.226 33.4985 147.157 33.2633 147.122 33.1625L144.63 34.4057C144.942 34.2041 146.153 33.4649 147.053 32.8937C147.053 32.8601 147.053 32.7929 147.019 32.7593C145.288 33.3977 144.422 32.5913 144.318 31.8857L144.388 31.9529C145.288 31.5161 145.599 30.5082 144.595 30.8778C145.115 30.5754 145.011 30.7434 145.08 30.8106C146.569 29.1642 141.064 32.8265 142.899 30.945C142.934 31.4825 143.972 30.8778 144.907 30.2058C143.834 30.5082 144.249 29.1306 141.549 31.281C141.999 30.6762 141.514 30.7434 142.934 29.769L140.718 30.2394C141.03 30.105 141.895 29.5338 141.93 29.1978C141.861 29.8698 144.768 28.425 143.107 29.937C143.938 29.3658 144.561 28.8618 145.149 28.425C144.976 28.1562 144.803 27.8874 144.595 27.6186C143.141 28.1562 141.514 28.8954 140.164 29.433L140.857 27.8538L140.061 28.3914L141.93 26.8122C141.411 27.0474 140.995 27.2826 141.134 27.1482C141.307 27.0138 141.584 26.8458 141.895 26.6442C141.757 26.6442 141.514 26.7114 141.272 26.8122C141.964 26.2747 142.761 25.7707 143.591 25.2667C143.522 25.1659 143.418 25.0987 143.349 24.9979C142.276 25.5019 141.272 26.1067 140.545 26.9466L141.376 25.6699C139.057 26.6442 139.507 26.4426 137.637 26.9802C138.295 26.4426 138.987 26.1403 139.403 25.6699C138.157 26.3082 138.607 25.5355 139.091 24.8299C138.814 24.7627 138.572 24.6283 138.434 24.3931C137.845 24.7627 137.187 25.3339 136.668 25.5019C136.876 25.3339 137.326 25.0315 137.326 24.9307L135.768 25.7707C136.183 25.2667 136.91 25.2331 137.257 24.4939C135.837 24.8299 134.903 25.1659 135.249 24.2251C134.453 23.9563 132.756 26.6442 132.652 26.0059C133.691 25.0315 134.937 23.8891 134.868 23.4859C133.968 23.9563 133.137 24.6955 132.445 24.8635L134.141 23.4523C133.864 23.2843 133.379 23.3515 134.626 22.2763C133.76 22.6795 133.76 22.4443 133.933 22.1419C132.756 22.5451 130.818 25.3003 130.229 25.9387C131.164 24.5275 130.229 24.9643 132.064 23.0155L132.791 22.9147C134.21 20.4956 129.918 24.3931 133.103 20.9996C133.172 21.3355 134.314 20.8316 135.076 19.8908L133.933 20.3276C134.314 19.8908 134.418 20.2604 134.764 19.6556C134.73 19.6556 134.626 19.7228 134.591 19.7564C134.591 19.8236 134.522 19.8572 134.522 19.958C134.453 19.8908 134.453 19.8908 134.453 19.8236C133.933 20.0924 133.206 20.5292 132.722 20.8652L132.202 21.302C132.202 21.302 132.41 21.0668 132.722 20.8652L132.826 20.7644L131.995 20.462C131.995 20.462 132.652 20.0924 132.618 19.9244L131.406 20.3276C131.926 20.0588 132.306 19.4876 132.376 19.0844C132.376 18.1436 128.464 22.1083 129.71 20.2268C129.71 20.294 129.918 20.126 129.952 20.2268L130.472 19.3868C127.114 22.5787 129.052 18.6812 125.764 21.9403C126.837 20.3948 126.525 21.134 128.395 19.8572L129.052 18.6476C129.295 18.6476 129.156 18.95 129.572 18.7484C130.575 17.0012 128.464 18.446 127.46 19.1516C127.771 18.5468 129.987 16.7324 129.018 16.934C127.806 17.0684 126.802 19.4876 126.11 19.5884L127.495 17.606C125.798 18.5804 126.595 17.0684 126.421 16.5308C126.214 16.598 126.006 16.766 125.798 16.934L125.591 17.1356C125.106 17.6732 124.691 18.3452 124.483 18.1772L125.591 17.1356L125.798 16.934C126.041 15.8253 123.444 18.0428 123.652 17.2364C124.033 16.9004 124.414 15.9261 124.76 15.4557L123.271 16.1949C123.894 15.8925 124.76 14.7837 125.625 13.7757C125.348 13.7757 124.794 14.2797 124.587 14.3133C124.968 13.9773 125.348 13.6413 125.625 13.1037L123.617 14.4477C123.514 14.6493 123.514 14.7837 123.548 14.8509C123.375 14.7501 122.544 15.2541 122.994 14.1789C123.34 13.7757 123.687 13.4061 124.033 13.0029C123.306 14.3469 124.171 13.3725 124.898 12.6333C124.587 12.5661 124.656 12.4653 124.829 12.2637C124.76 12.1293 124.691 11.9949 124.587 11.8605C124.137 12.3309 123.583 13.0029 123.237 13.5741C123.237 12.9357 123.306 12.5325 122.164 13.4733L123.306 11.9949L122.648 12.2637L123.998 10.819L123.86 10.7518C123.964 10.5838 124.033 10.4494 124.102 10.2814C123.687 10.2814 122.302 12.9021 122.198 11.8269L123.098 10.4494C122.475 10.7854 120.883 13.0701 121.748 11.2893C120.952 11.9613 120.917 13.5069 120.156 13.4397C120.502 12.6669 120.606 11.9949 120.606 11.6253C120.017 12.1629 119.74 13.3725 119.983 13.2381C118.702 13.4061 122.302 8.09741 120.329 9.50858C120.052 10.6846 118.529 12.1293 119.221 12.4317C118.425 13.1037 119.775 10.0462 118.563 11.4237L119.775 9.71018C119.775 9.71018 119.152 10.2142 118.979 10.3822L119.775 9.00459C118.009 11.2557 119.567 7.39183 117.629 10.5502C119.117 8.03021 117.248 10.5502 117.559 9.47498C118.736 7.92941 118.598 9.67658 119.636 7.99661C119.36 8.13101 119.013 8.23181 118.459 8.16461C118.183 8.5006 118.321 7.86222 117.559 9.13899C117.871 7.69422 116.763 9.47498 116.902 8.5678C116.971 8.6014 117.075 8.36621 117.144 8.39981C116.902 8.33261 116.936 7.69422 117.144 6.92143C116.936 6.92143 116.694 6.92143 116.521 6.98863C116.521 7.02223 116.452 7.02223 116.417 7.08943C116.313 7.42542 116.106 7.82862 115.794 8.4334C115.932 7.96301 116.002 7.66062 116.071 7.39183C115.967 7.45902 115.932 7.59342 115.794 7.62702C115.863 7.45902 115.967 7.32463 116.106 7.22383C116.244 5.94705 114.513 9.07179 114.652 6.68624C114.755 6.55184 114.79 6.45104 114.859 6.31665C114.652 5.98065 114.444 5.57746 114.271 5.17427C113.613 6.41745 113.682 6.58544 112.886 7.35823C112.748 8.97099 112.228 10.2814 111.19 10.5502C109.771 8.7022 107.347 9.34059 106.863 10.5838C106.378 10.0798 107.313 9.71018 107.347 9.34059L104.993 9.60938C105.063 8.467 105.997 7.92941 106.932 7.49262C106.932 7.49262 106.932 7.45902 106.932 7.42542C106.932 7.42542 106.863 7.42543 106.932 7.25743C106.932 7.32463 106.932 7.35823 106.932 7.42542C107.001 7.35823 107.14 7.02223 107.174 7.12303C107.278 6.28305 107.313 5.03987 107.07 4.80468V5.03987L107.14 5.57746L106.967 5.30867L106.828 6.04785V5.10707V5.07347C106.517 5.14067 106.759 6.88784 106.413 6.82064C106.413 6.11505 106.378 5.67826 106.274 5.37587C106.136 5.37587 105.997 5.17427 105.79 4.77108C105.72 4.77108 105.651 4.70388 105.582 4.70388C105.582 4.73748 105.582 4.77108 105.582 4.83828C105.443 4.77108 105.27 4.77108 105.132 4.73748C105.167 4.90548 105.167 5.20787 105.063 5.81266C104.959 5.40947 104.924 4.90548 104.717 4.70388V6.28305C103.713 5.30867 103.228 4.03189 102.224 4.40148V4.13269C102.224 4.13269 102.086 3.96469 102.016 3.8639C101.774 3.6959 101.636 4.06549 101.601 5.17427C101.463 4.43508 101.67 4.03189 101.463 3.39351C101.393 5.30867 101.013 4.80468 100.632 4.06549C98.6932 6.11505 97.4123 2.31833 96.2007 2.28473L96.5469 3.09111L95.8892 2.45272V2.28473C95.8892 2.28473 95.5776 2.51992 95.3699 2.82232C95.543 2.51992 95.7161 2.38553 95.9584 2.28473L96.0623 1.98233L96.2007 2.28473C97.0662 2.18393 98.0701 3.15831 97.9316 3.6959L98.2431 1.61274C97.9662 1.37755 97.6547 1.20955 97.3431 1.04155C97.2739 1.04155 97.2046 1.04155 97.1354 1.04155L97.0662 1.94873L96.8931 1.04155C95.7161 1.10875 94.5045 1.10875 93.3968 0.604761C93.2237 0.604761 93.0506 0.604761 92.8775 0.63836C92.8775 0.806357 92.9467 0.940754 93.016 1.00795C93.189 0.974353 93.3968 0.940754 93.5352 0.839956C93.2929 1.07515 93.1198 1.10875 93.016 1.00795C92.6352 1.10875 92.289 1.24315 92.9467 2.31833C92.6006 1.91513 92.2198 1.61274 91.8736 1.34395C91.7351 1.44474 91.4582 1.47834 91.1467 1.51194C91.0082 1.94873 90.8697 2.35193 90.7312 2.45272L90.5235 1.61274C89.9351 1.74714 89.4504 1.98233 89.6581 2.72152L91.0428 3.12471C91.2851 4.06549 89.762 3.99829 88.7927 4.23349C87.408 2.82232 85.1233 1.74714 82.7693 1.24315C82.6309 1.24315 82.4578 1.17595 82.3193 1.14235C82.2847 1.14235 82.2501 1.14235 82.1808 1.14235C82.1808 1.17595 82.1808 1.20955 82.1808 1.27675C82.1808 1.20955 82.1808 1.20955 82.1808 1.14235C82.0078 1.14235 81.8347 1.04155 81.6616 1.04155C81.4885 1.04155 81.35 1.00795 81.1769 0.974353C81.1423 1.27675 81.2462 1.78074 81.3846 2.15033C80.4154 0.201569 80.9 3.29271 80.5538 3.6287L79.1345 0.839956C78.8576 1.78074 79.3076 2.62072 79.3768 3.19191C78.7191 3.4943 77.9922 3.35991 77.2998 3.12471C77.3344 3.12471 77.3691 3.19191 77.4037 3.22551L76.3652 3.99829L76.4344 2.85592C75.5344 2.58712 74.7036 2.48632 74.1151 3.4271C73.4573 2.45272 73.8035 1.07515 73.1112 0.806357C74.5305 3.6623 71.5534 2.55352 72.4881 4.56948C71.2765 1.47834 70.0995 4.30069 69.4764 -0.168024C68.6456 -0.268822 69.2341 1.84794 69.5456 2.18393C69.3379 2.18393 69.1648 2.18393 68.9917 2.21753C69.0956 2.35193 69.1994 2.48632 69.2341 2.68792C68.784 2.95671 68.2302 3.19191 67.6763 3.4607C67.6417 3.5951 67.5724 3.6959 67.5032 3.8639C67.434 3.7631 67.2955 3.7295 67.157 3.6959C66.0147 4.23349 65.0454 4.83828 65.0454 5.64466C63.7992 4.09909 65.5993 4.23349 66.0839 3.8639C65.4262 4.06549 64.63 4.30069 63.8338 4.13269C63.7646 4.19989 63.7299 4.26709 63.6607 4.33429C63.6953 4.26709 63.7299 4.16629 63.7299 4.09909C63.1761 3.93109 62.6568 3.5615 62.2068 2.75512C63.2799 4.73748 62.4491 3.8639 62.2068 4.90548L63.1415 6.68624L61.9991 6.75344C61.826 6.98863 61.7568 6.92143 61.6875 6.75344C61.4798 6.71984 61.4452 5.67826 60.8221 5.30867C60.0259 5.40947 60.3029 6.41744 60.1644 7.49262L60.3721 7.72782L59.9221 8.06381C59.5413 8.13101 60.6836 5.84626 59.1605 5.24147C59.299 5.74546 59.3336 8.4334 58.6066 7.19023C59.2643 7.12303 58.7797 5.84626 58.3643 5.34227L57.4296 5.47666L58.4682 7.72782C56.0103 8.33261 52.8602 7.52622 50.3678 8.7022C50.1255 8.06381 49.8485 7.92941 49.537 7.89581C49.6408 8.09741 49.7447 8.29901 49.9177 8.4334C48.9485 8.97099 48.3254 8.9374 47.7369 9.00459L47.5638 9.91178C47.5638 9.91178 47.5984 10.0462 47.633 10.1134C47.7369 10.1134 47.7369 10.1806 47.633 10.2142C49.26 15.0525 45.4175 11.3229 44.379 12.6669C44.379 12.9021 44.4482 13.1037 44.5521 13.2717C44.8983 13.4061 45.3137 13.5069 45.8675 13.4397C45.1752 13.7757 44.7598 13.6413 44.5521 13.2717C44.4136 13.2045 44.3098 13.1037 44.2059 13.0365C44.2059 13.0365 44.2059 13.0701 44.2059 13.1037C44.2059 13.0701 44.2059 13.0365 44.1713 12.9693C44.0675 12.8685 43.9636 12.7677 43.8598 12.6669C43.2713 14.3805 40.3634 12.4653 40.5365 13.4061L39.5672 12.0285C39.6711 13.1037 39.7403 13.8093 39.6711 14.2461C41.0212 15.4893 42.3366 16.5308 43.2713 16.9676C44.0675 18.0764 41.0904 16.8332 40.3981 17.3036C37.1787 17.2028 39.0826 20.8316 37.1787 21.5371L37.2825 19.6892C36.6594 19.5212 35.2055 22.0075 35.5171 22.8811C34.8593 22.4443 33.5785 19.1852 32.263 19.2524C32.263 19.2524 32.2284 19.3196 32.1938 19.3196C32.1592 19.7564 32.09 20.1932 32.1246 20.5628C32.3323 20.798 32.5054 21.0668 32.54 21.3691C32.263 21.134 32.1592 20.8652 32.1246 20.5628C31.9861 20.3948 31.813 20.2604 31.5707 20.126C32.3669 21.4699 31.7092 21.4699 30.9476 21.302C30.8091 21.7387 30.7053 22.2091 30.636 22.7131C30.8091 22.8139 30.9476 22.9483 31.1207 23.0491C30.913 22.9483 30.7399 22.9147 30.6014 22.9147C30.463 25.1323 31.3976 27.417 32.6092 28.1226C33.0939 26.2746 33.6131 24.4267 34.2016 22.6123C35.7594 23.7211 33.1977 26.6442 35.1363 27.921C33.9247 28.9962 32.7477 30.105 31.5361 31.2474C31.8823 30.7434 32.6092 28.8954 31.2938 28.8618C30.0476 30.609 30.3591 29.5338 28.7321 30.105C28.559 28.8954 28.1782 27.1818 27.7282 25.3003C26.0666 24.4603 23.1241 22.7131 23.5742 23.6203L24.5088 23.9899C24.6473 24.4603 24.2665 24.4939 23.7473 24.4603C24.8204 27.417 26.5512 30.3066 27.1743 31.3817C25.6166 32.6585 22.6395 29.769 22.2934 28.8954C19.7663 31.9529 24.7512 35.3129 21.9818 38.1688L23.5742 37.4632C23.3318 38.4376 20.7356 40.6888 21.5664 40.8232C20.2163 40.8232 17.6547 40.0168 17.5854 38.9416C18.0008 40.588 18.4162 42.2343 18.9009 43.8807C18.8316 43.2423 15.8546 41.7639 15.5084 41.2599C14.6084 42.3687 17.4123 45.2247 18.347 44.7879C14.8853 45.7623 16.3392 45.8631 12.8083 46.2999C12.6006 47.1062 15.8892 47.9798 16.4777 47.6774C16.3392 49.5926 15.4738 50.2646 14.7468 50.8022C14.7468 50.8358 14.7468 50.8694 14.7468 50.903H14.6084C13.8122 51.4405 13.2929 51.9445 14.4007 53.7925C13.016 52.4485 11.6659 51.071 10.3505 49.6598L14.6084 50.8694L14.7122 50.8022C14.8161 48.8534 12.4621 47.6774 10.1774 46.6694L10.5582 47.1398L8.72345 46.0983C9.2081 46.8374 8.68884 47.0054 8.16959 47.1398C8.27344 46.9718 8.06573 46.9382 7.71956 46.7366C9.55426 48.1814 9.13885 49.1558 9.4158 50.0294C10.3505 51.7093 11.3544 53.3557 12.4275 54.9349C12.0813 54.5989 10.3158 53.3893 9.45041 52.8517C9.45041 52.8853 9.45041 52.9189 9.45041 52.9525L10.7312 53.7253C11.7005 54.3637 10.8005 54.0949 9.72736 53.7589C10.5235 56.2789 8.72346 61.1508 7.75418 63.7043L7.85803 63.2339C7.06183 62.2931 5.50406 64.9139 6.30026 66.2579C5.74638 65.9555 5.95409 65.7203 6.05794 65.2499C3.39243 67.1314 9.93506 68.677 7.13107 70.4242C7.61571 68.5426 6.47334 68.005 5.33098 67.9378C6.09256 69.685 4.77711 73.4145 8.30806 72.7089C7.54648 73.6833 8.03111 74.6241 6.26564 74.5905C6.9926 75.9345 7.7888 77.2112 8.61961 78.4544C8.23882 78.1856 7.1657 78.0176 7.09647 79.2608C7.26955 76.976 3.9463 74.8593 6.19641 73.5825C4.05016 73.5153 2.90779 74.4561 1.1077 73.2801C2.18083 78.2192 6.30026 80.3024 9.17348 82.6879C8.89655 84.0991 8.65422 85.5103 8.44652 86.9886H9.45041L7.2003 88.1646C7.85803 88.5678 8.41191 88.803 8.20421 88.9374C7.99651 89.0718 7.65033 89.0046 7.26955 88.9038C7.47725 89.307 7.78879 89.6766 8.10034 89.811C8.4119 89.7102 8.68884 89.6094 8.93117 89.3742C8.75807 89.9118 8.4119 89.979 8.10034 89.811C6.88875 90.2478 5.26175 89.811 3.7386 89.307C3.60014 89.475 3.49628 89.6094 3.35782 89.7774C5.40022 91.4574 7.85803 93.3053 9.06963 91.155L9.65811 89.3406C9.51965 90.1134 9.34657 90.7182 9.06963 91.155L8.23882 93.9101C11.3197 96.2621 10.6966 95.8589 13.2929 98.9836C12.4967 99.3532 11.5621 98.5804 11.112 99.3532C14.4007 101.302 9.45041 106.275 11.9428 106.308C13.016 108.257 14.2276 106.711 15.1968 107.854C14.9199 107.854 14.366 107.854 14.4007 108.223L16.4777 109.399C15.993 110.172 14.9545 108.223 14.6084 110.172C16.6161 112.894 17.9316 114.439 17.6893 117.161C18.9355 120.655 20.7702 114.876 21.1164 117.967C20.4586 118.337 19.7317 118.74 19.2124 119.244C18.6586 119.714 18.3816 120.521 18.347 120.823C19.4201 120.89 20.4586 120.487 21.1856 120.521L19.2124 121.529C19.5932 122.033 20.2163 122.066 18.9701 123.175C20.1817 123.041 20.0432 123.108 20.4586 123.847C21.8087 124.116 22.1203 123.007 22.1203 121.663C22.0164 120.924 22.4664 120.588 22.6741 120.218C22.9511 119.849 23.1934 119.614 23.3665 119.446C23.0895 119.748 22.9511 119.95 22.8818 120.118C22.8126 120.286 23.3319 120.823 23.5396 121.159C24.0588 121.932 24.4396 122.705 24.1627 124.15L22.0856 123.31C24.0934 128.148 27.4513 123.478 26.3089 128.349C25.1665 127.308 22.9511 127.073 22.9511 128.585L25.4435 129.055C25.305 129.66 24.1627 128.618 24.5781 129.727C25.3743 129.727 27.1397 129.626 28.0398 129.391L28.559 128.954C28.7667 129.122 28.4898 129.257 28.0398 129.391L27.9359 129.492L31.4322 131.541C30.8784 131.037 30.2206 131.541 30.8091 132.079L33.6477 132.65C32.6785 132.65 32.9554 133.658 33.717 134.599C36.1402 137.018 38.7364 132.079 39.6365 135.271C39.3595 135.036 39.1518 135.271 38.8403 135.002L39.4288 136.514C42.1635 132.885 46.2483 140.008 48.7408 136.044C49.3639 138.463 48.36 137.119 45.2098 137.858L46.2483 139.908C45.4521 139.706 45.0714 139.068 44.1021 139.034C45.3829 141.991 48.7754 140.916 50.4716 140.412C51.0601 141.386 48.2561 143.2 51.0947 143.637C55.0065 144.309 51.8217 140.344 54.141 140.714L54.7295 143.503C58.0527 142.864 59.5067 144.981 61.9299 145.955C62.553 145.955 62.8991 145.754 63.1068 145.552C63.1068 145.552 63.0376 145.552 63.0376 145.519L63.2799 145.283C63.5915 144.611 63.1415 143.738 64.63 144.107L63.2799 145.283C63.2799 145.283 63.1761 145.451 63.1068 145.552C65.4954 147.232 69.4071 144.712 71.2765 145.922C70.688 146.291 72.1419 147.635 72.2457 148.24C73.5958 148.039 74.9459 147.803 76.2613 147.568C74.4958 147.871 74.2881 149.215 73.6997 150.424C74.9113 150.525 75.6036 149.887 76.4344 149.887C75.8459 150.256 75.2574 150.659 75.7767 151.365C77.2306 150.861 78.6845 150.357 80.0692 149.819C79.8961 149.551 79.4461 149.416 79.0999 149.282C80.0692 149.416 82.2154 148.879 83.427 150.122C83.254 150.626 82.7001 151.063 82.527 151.567C81.5923 149.954 80.7615 151.13 79.9653 152.037C82.7001 152.205 80.5884 152.474 81.7654 153.616C83.704 153.818 84.6386 152.071 84.2925 150.895C86.3003 151.6 86.9926 152.003 89.0696 150.693L88.6196 152.541C89.2773 152.339 89.9351 152.205 90.5582 152.003C90.0735 152.776 89.5196 153.482 88.9658 154.221C92.7736 155.498 89.6927 151.13 93.7083 152.003L94.0199 152.071ZM131.995 24.7963C131.995 24.7963 132.029 25.0315 131.614 25.4683L131.199 25.8043L131.995 24.8299V24.7963ZM129.606 21.6715L130.991 20.294L129.641 21.7723V21.7051L129.606 21.6715ZM94.2622 4.53588C93.7083 4.13269 93.1891 3.7295 92.6352 3.29271C92.8083 2.82232 93.8814 3.6959 94.9891 4.23349C95.543 4.23349 96.27 4.46868 96.5815 4.56948C96.1661 4.70388 95.5776 4.50228 94.9891 4.23349C94.643 4.23349 94.366 4.26709 94.2622 4.53588ZM71.138 3.8303C73.1458 4.26709 70.9649 4.80468 70.7918 5.37587C68.0917 5.61106 70.9303 4.40148 71.138 3.8303ZM96.9277 6.45104L98.2431 7.05583L98.6932 7.59342L96.9277 6.45104ZM100.493 7.29103L101.601 6.21585L101.532 7.96301L100.528 7.29103H100.493ZM114.167 11.5581C113.128 10.9198 114.063 10.5502 115.171 10.819L115.032 11.5581C114.721 11.6925 114.479 11.4237 114.167 11.5581ZM22.051 120.857C22.051 120.857 22.0164 120.622 22.501 120.252L22.9511 119.983C22.6049 120.252 22.328 120.554 22.051 120.857ZM144.249 90.8526C144.076 90.6174 142.657 90.2478 143.072 89.643C142.726 89.5422 144.526 89.5086 144.249 90.8526ZM144.318 85.4767L143.903 84.9727L145.115 84.1663L144.318 85.4431V85.4767ZM138.745 49.1558H137.326L136.495 48.9206L138.745 49.1558ZM146.811 39.8488C147.399 38.8744 145.149 40.8568 145.53 39.9832C147.365 38.6056 147.053 39.0088 147.953 38.8072C147.295 39.1096 147.538 39.5128 146.776 39.8824L146.811 39.8488ZM127.564 38.572L126.421 38.1688L129.018 37.9L127.564 38.572ZM126.664 35.6153L125.521 36.388V35.5481L126.664 35.6489V35.6153ZM122.787 31.3481C122.44 31.0458 122.233 31.6169 121.99 31.9193C121.921 31.4825 121.99 31.0794 121.437 30.6426L122.787 31.3481ZM115.829 26.2747C115.932 25.6699 114.79 27.4506 114.617 26.8794C111.917 26.0731 117.317 25.1659 115.829 26.2747ZM125.868 21.2684C125.868 21.2684 125.418 21.3355 125.348 21.1676C127.045 19.3196 125.383 21.3355 125.868 21.2684ZM26.2051 33.9353C26.1704 33.7337 26.1358 33.4985 26.2051 32.9945C26.2051 33.3305 26.2051 33.6665 26.2051 33.9353C26.4128 34.8425 27.9359 32.8601 28.2475 33.8345C26.032 35.0777 29.6322 35.2121 27.4513 36.7912C25.1319 36.0521 26.032 35.6825 26.2051 33.9353ZM36.6594 131.877L36.9363 132.113L36.0709 133.893L36.6594 131.877ZM66.1531 135.674C66.6724 133.625 61.826 134.7 63.1415 131.709L63.2799 132.045C64.4569 132.045 63.9377 130.601 63.1068 129.929C62.8299 129.828 62.5876 129.761 62.3107 129.66C63.1068 130.937 59.1605 132.012 62.0683 133.322C61.1337 133.591 60.1298 133.826 59.1259 133.994C57.395 136.615 55.3526 135.808 53.4141 133.994C51.4063 132.18 49.8831 129.324 47.7023 128.215C48.083 128.316 48.3946 128.181 48.5677 128.081C46.456 127.173 45.556 125.124 45.2444 123.578C44.8983 121.999 44.9675 120.756 44.3444 120.689L45.4868 119.782C45.4868 119.782 45.2791 119.58 45.1752 119.513C42.1289 118.807 41.9558 118.807 41.2635 116.22C41.3327 116.186 41.4712 116.119 41.6096 116.086C41.4712 115.918 41.3327 115.783 41.1942 115.615C40.1211 115.75 39.1172 115.615 38.321 114.338L38.771 114.07L36.4171 111.886C36.8671 111.516 37.1094 111.18 37.2479 110.911C36.8671 110.374 36.4517 109.87 36.0709 109.332C35.794 109.198 35.5171 109.063 35.2055 108.929C33.6477 108.257 31.9861 107.182 33.5439 105.267C33.5093 105.166 33.44 105.099 33.4054 104.998C31.813 105.031 29.9783 103.251 28.8013 102.444C28.5244 102.612 28.1436 102.579 27.6936 102.31C27.9705 102.041 28.3513 102.176 28.8013 102.444C29.009 102.344 29.1475 102.142 29.286 101.84C25.9281 101.705 28.1436 97.5052 27.382 96.2285C26.4128 95.4557 25.6858 96.1277 24.9935 96.8668C26.4128 94.2461 20.9433 91.9613 21.7048 90.9534C21.601 89.475 23.5742 90.0126 24.6473 89.4078C23.7473 87.459 20.0086 90.651 21.5318 87.4926C21.8087 87.7614 22.1203 88.3326 22.3626 88.0302C22.5703 87.0558 26.5512 84.9727 27.0359 83.8639C27.0359 83.7631 27.0359 83.6287 27.0359 83.5279C27.0359 83.4607 27.0359 83.3935 26.932 83.3263L26.1012 84.1327C25.2358 83.2927 26.2397 81.9823 26.8974 80.9744C26.8974 80.4704 26.8282 80 26.8282 79.496C26.6205 79.496 26.4128 79.4624 26.1012 79.496L24.4742 79.8992C26.1704 76.4049 23.6088 78.6224 25.1319 75.1281H25.4089C24.9242 73.7169 26.932 72.8097 24.2319 72.2721L23.8857 72.8097C23.5742 70.9618 23.7473 70.7938 23.8857 68.8786C23.6434 68.6434 23.2626 67.7026 23.8165 67.4338C21.5318 67.2994 23.1242 62.6963 23.5396 61.8227C23.5742 63.5027 24.6473 62.8307 25.6166 62.5619C23.9896 61.386 23.9896 60.5796 25.582 59.6388C23.0203 58.7652 20.1125 57.7236 21.1164 54.6661C21.3241 55.2709 21.2894 56.0437 21.9126 55.9429C22.5703 55.8421 22.2241 54.9685 22.1203 54.6661C22.7433 54.5989 22.8126 55.6405 23.8165 55.6741C22.1895 52.8517 25.0627 52.3813 25.8243 49.6262C25.9974 50.8022 26.8974 50.4326 27.8667 50.735C25.4435 48.7526 32.1938 49.4918 28.3513 47.879C33.5093 45.3591 36.5902 39.6136 39.7057 40.084C40.8135 40.5544 40.4327 38.4376 40.9865 37.8664L41.852 38.908C41.7827 35.6825 42.4405 37.1272 42.7866 33.5657C43.0289 35.4809 43.8944 35.7161 45.556 35.9513C45.3829 34.8761 45.2444 33.7673 45.1406 32.6921L46.7676 34.0697C46.8368 32.9945 47.7022 32.7257 48.6023 32.4905C48.2907 32.7593 48.6023 32.7593 48.8446 33.0281C47.3561 30.4746 50.437 28.8282 50.1947 27.417C52.4448 29.3322 51.9255 25.5691 53.8295 27.5514C53.8987 27.081 54.0718 26.6106 54.3141 26.2075C53.3448 25.3339 52.5486 24.1915 53.5872 24.3259C53.6564 24.2587 53.691 24.2587 53.7602 24.1915L52.791 23.0491C51.9602 21.7723 54.0026 22.9483 55.4911 23.6539C55.9411 23.7211 56.3565 23.8891 56.7719 23.9899C56.8758 23.9563 56.9796 23.9227 57.0489 23.8891C57.0489 23.9563 56.9796 23.9899 56.9104 24.0235C57.5335 24.1579 58.0874 24.1579 58.5374 23.3851C60.3375 24.0235 61.4798 22.7467 62.8645 21.6043C64.2146 20.462 65.7031 19.454 67.5724 20.798C67.0532 20.5628 66.3608 20.5628 66.3262 21.134C68.8187 20.3948 71.6573 22.2763 72.9727 20.8316L72.6265 19.3532C74.3228 18.4124 75.6728 17.774 77.1267 17.7068L77.0229 15.9933C79.0999 16.3628 83.7386 13.2717 85.331 16.766C85.8502 15.3885 88.5158 17.102 89.8658 16.766L90.1428 18.0764C91.839 18.5804 92.9467 18.2444 94.0545 17.9756C93.916 17.8412 93.7429 17.7404 93.6045 17.5724C94.643 16.6652 95.6123 17.2028 96.3392 17.9756C96.9969 18.1436 97.7239 18.5468 98.4855 19.3196C97.897 20.4284 97.3431 19.0172 96.3392 17.9756C95.5084 17.7404 94.7814 17.8412 94.0545 17.9756C97.17 21.1004 101.013 19.3532 104.059 20.6972L103.955 21.0668C105.063 21.1676 106.205 21.3019 107.313 21.4699C105.997 22.1755 108.282 20.9996 109.009 21.7387C110.255 21.6379 111.571 22.7803 112.125 24.1243C112.678 24.4939 113.232 24.8635 113.786 25.2667C111.951 24.8971 112.402 26.1403 112.298 27.2826C112.575 27.4842 112.852 27.753 113.128 27.9882L113.752 27.8874C113.752 28.1226 113.613 28.257 113.475 28.3578C113.821 28.7274 114.132 29.097 114.479 29.433C115.413 29.769 116.486 30.1722 117.49 29.7354C117.663 29.3658 117.663 28.929 117.594 28.4586C117.456 28.4586 117.456 28.4586 117.594 28.425V28.3242C117.352 27.8874 117.248 27.6186 117.213 27.4506C117.006 27.1482 116.763 26.8794 116.452 26.6778C116.832 26.913 117.075 27.081 117.248 27.1818C117.421 27.1146 117.836 27.5178 117.248 27.1818C117.179 27.1818 117.179 27.2826 117.248 27.4506C117.421 27.7194 117.559 28.0218 117.629 28.3242C117.629 28.3578 117.629 28.3914 117.663 28.425C117.836 28.3914 118.148 28.2906 118.321 28.1898C118.217 28.0554 118.113 27.8874 117.975 27.7194C118.598 27.8874 118.563 28.0554 118.321 28.1898C119.29 29.433 119.29 28.6266 119.706 28.0554C119.429 30.9786 121.263 30.4746 120.19 33.3305C121.229 29.8698 122.925 36.0857 124.379 33.2969C123.41 35.8169 124.898 34.0361 123.86 35.9513C123.375 34.6745 121.679 34.4393 120.156 34.3385C120.294 34.8761 120.156 35.5817 118.875 36.9592C119.083 37.228 119.394 37.1944 119.671 36.9928C119.394 36.724 119.325 36.388 119.844 35.8505C120.086 35.9177 120.294 35.9513 120.502 36.0185C120.64 35.7833 120.744 35.5481 120.744 35.4137C121.61 36.2873 122.337 36.8584 124.033 36.388C123.929 37.0936 125.868 38.0344 126.941 39.412C127.01 39.3784 127.079 39.3448 127.148 39.2776C127.183 39.2104 127.252 39.1096 127.287 39.0424L127.356 39.1768C127.771 38.9752 128.291 38.8072 129.398 39.1768C129.087 40.3192 128.914 40.9576 129.018 41.5623C129.122 41.5623 129.225 41.5623 129.329 41.5623L130.333 39.7816C130.679 40.2184 130.991 40.6888 131.302 41.1256C131.683 41.2599 131.683 41.3607 131.545 41.4951C131.649 41.7639 130.645 42.2007 130.714 43.0071C130.887 43.2423 131.06 43.3767 131.268 43.4439C131.268 43.0071 131.268 42.6039 131.372 42.1671C131.752 42.0663 131.51 42.9399 131.268 43.4439C131.822 43.6119 132.514 43.2423 133.414 43.1415L133.518 42.8391L134.176 43.3095C134.314 43.4775 133.864 43.4775 133.31 43.5447C133.864 43.5783 134.314 43.7127 134.695 43.9143C135.733 44.0823 136.876 44.3175 137.499 44.9895C136.668 44.8215 136.737 46.2663 135.595 46.2999C135.803 45.0567 135.456 44.3175 134.695 43.9143C134.141 43.8135 133.622 43.7127 133.241 43.5783C132.445 43.6455 131.545 43.8807 131.718 45.0567C132.168 44.7207 134.937 44.0151 134.072 45.2583C133.622 44.5191 132.687 45.2583 132.376 45.8631C132.618 46.0311 132.86 46.1655 133.206 46.2327C133.379 46.4678 133.345 46.6022 133.276 46.7366L134.764 45.2583C136.599 47.879 137.257 51.2054 138.468 54.2629C138.918 53.8597 139.368 53.3221 139.784 53.1877C139.126 53.5909 139.23 54.4309 139.091 54.9685L138.676 54.7669C138.849 55.2037 138.987 55.6405 139.195 56.0437C137.153 56.85 140.199 58.6308 137.014 59.4708L137.257 59.2356C136.599 58.53 134.972 60.378 135.526 60.9156C136.218 59.8404 139.091 61.1508 138.884 59.202L140.857 60.1092C141.307 60.0084 141.688 59.9748 142.034 59.9748C142.518 59.0676 142.934 58.6644 143.868 59.538C143.522 59.4036 143.522 59.8068 143.488 60.21C144.076 60.5796 144.111 61.2515 143.938 62.0579C143.868 62.3939 143.765 62.7299 143.661 63.0995C143.73 63.0995 143.834 63.0323 143.903 62.9315C144.007 63.3683 144.111 63.6371 144.215 63.8051C144.734 62.9315 144.63 64.6787 144.215 63.8051C144.18 63.9059 144.111 63.9395 144.076 64.0739C143.868 63.7715 143.695 63.6035 143.591 63.4355C143.349 64.4435 143.245 65.3843 144.041 66.0899C143.765 65.9555 143.453 65.9891 143.245 65.9891C145.668 67.8034 142.276 70.9282 143.28 71.2642L141.584 71.5665C144.353 73.1457 144.561 73.4817 143.488 75.5985C143.211 75.5649 142.726 75.3297 142.345 75.6321C143.591 76.1697 144.838 76.7408 144.388 78.2192L143.868 78.1184L143.938 80.4368C141.722 80.168 141.861 80.84 142.311 81.7471L144.284 82.5199L142.795 82.6879C143.176 83.5951 143.245 84.4351 141.48 84.4687C141.48 84.6703 141.48 84.8719 141.48 85.0735C142.172 85.9135 142.345 87.0558 142.761 87.7614C143.072 87.8286 143.349 88.0302 143.557 88.3326C143.176 88.299 142.968 88.0638 142.761 87.7614C142.622 87.7614 142.484 87.7614 142.345 87.7614C142.311 87.795 142.276 87.8622 142.207 87.8958C144.18 89.3406 140.476 89.9454 140.476 90.8526C141.099 91.0542 141.688 91.323 141.964 90.987C142.034 90.5502 142.103 90.1134 142.068 89.8446C142.172 90.483 142.103 90.819 141.964 90.987C141.964 91.2222 141.93 91.4238 141.93 91.6254C142.207 91.6254 142.518 91.659 142.795 91.6926C142.449 91.7598 142.241 91.8941 142.103 92.0621C142.276 92.1965 142.588 92.1629 143.176 91.7261C142.761 92.1629 142.345 92.5997 141.964 93.0365C142.276 94.2461 143.557 95.7917 142.865 95.8925C142.38 96.5645 141.272 95.8253 140.234 95.4557C140.164 95.5901 140.061 95.7245 139.957 95.8589C140.891 96.766 143.765 97.0012 141.514 97.7404C141.376 97.4716 141.376 97.0348 141.03 97.0348C140.822 97.2028 140.095 97.1692 139.264 97.102C138.26 99.0172 137.499 101 136.703 103.016C135.353 106.476 133.691 109.937 130.749 112.323C131.787 113.331 132.376 114.339 131.787 115.212C131.614 114.742 131.718 114.305 131.164 114.103C130.61 113.902 130.852 114.574 130.922 114.809C130.61 114.674 130.472 114.406 130.229 114.103C130.022 114.137 129.918 114.204 129.814 114.305C129.883 114.574 129.849 114.742 129.814 114.91C130.056 115.481 130.714 116.254 130.541 116.724C129.71 116.69 128.914 116.623 128.083 116.556C128.048 116.657 127.979 116.758 127.945 116.858C127.91 116.724 127.841 116.623 127.771 116.522C127.425 116.522 127.079 116.489 126.733 116.455C126.802 117.698 127.979 117.799 128.395 118.236C125.868 121.865 120.779 122.335 119.152 125.695C117.594 125.46 117.906 123.646 116.521 124.116C119.948 125.561 113.925 127.577 116.14 128.685C113.232 126.737 111.259 130.567 109.632 126.468C109.321 126.972 108.974 127.409 109.044 127.98C109.286 128.417 109.632 128.786 109.909 128.853C108.836 129.257 107.971 129.66 107.209 130.265L107.728 131.239C108.213 132.314 107.486 131.575 106.69 130.735C106.344 131.105 106.032 131.508 105.755 132.079C105.063 131.81 103.055 132.852 100.839 133.557C98.797 134.162 96.6508 134.397 95.3353 133.322C95.3353 133.322 95.2661 133.389 95.2315 133.389C96.3046 134.767 95.0584 134.263 94.1929 135.338L95.6469 137.018C94.7814 137.186 93.8814 137.22 92.9813 137.32C92.4967 137.589 92.3236 137.556 92.289 137.388C91.9428 137.388 92.0467 136.783 91.6659 136.346C90.9389 136.514 90.1428 136.816 89.2773 136.951C89.035 137.354 88.8273 137.824 88.4465 138.295L88.7581 138.53C88.3427 138.664 87.9619 138.765 87.5465 138.866C86.958 138.9 88.4119 137.858 88.585 136.984C88.1003 136.984 87.6157 136.951 87.2003 136.716C86.7503 137.623 85.781 138.799 85.1233 137.824C86.6118 137.824 86.3003 136.48 85.7118 135.943C85.0194 135.943 84.3617 135.976 83.6694 135.943L84.5002 138.362C78.4076 138.564 72.3496 136.581 66.2224 135.607L66.1531 135.674ZM51.1986 137.824C51.7871 138.228 52.6871 138.127 53.241 138.496C52.3409 140.781 52.6525 138.16 51.1986 137.824Z" fill="#B1291D" fill-opacity="0.9"/>
<path fill-rule="evenodd" clip-rule="evenodd" d="M150.169 41.0584C150.653 40.7896 151.207 40.4872 151.726 40.1848C151.726 40.1176 151.761 40.084 151.796 40.0168C151.519 40.1176 150.48 40.084 149.822 39.916C148.957 40.3192 148.126 40.7896 147.469 41.1928L148.957 40.9912L148.888 40.8904C148.819 40.6888 149.13 40.7896 149.58 40.8904L150.134 40.8232C150.134 40.8232 149.961 40.8904 149.857 40.9576C149.961 40.9576 150.03 40.9912 150.134 41.0248L150.169 41.0584Z" fill="#B1291D" fill-opacity="0.9"/>
<path fill-rule="evenodd" clip-rule="evenodd" d="M143.905 25.7035C143.905 25.7035 143.939 25.7035 143.972 25.7035C143.972 25.7035 143.972 25.7035 143.939 25.7373L143.905 25.7035Z" fill="#B1291D" fill-opacity="0.9"/>
<path fill-rule="evenodd" clip-rule="evenodd" d="M151.588 43.5783C151.588 43.5783 151.761 43.4439 151.9 43.3767C151.9 43.3767 151.934 43.3767 151.969 43.3431C151.9 43.3095 151.9 43.2759 151.796 43.2087L151.484 43.6119C151.484 43.6119 151.588 43.6119 151.623 43.6119L151.588 43.5783Z" fill="#B1291D" fill-opacity="0.9"/>
<path fill-rule="evenodd" clip-rule="evenodd" d="M151.969 43.3431C151.969 43.3431 151.934 43.3431 151.9 43.3767C151.83 43.4439 151.761 43.5111 151.692 43.5783C152.038 43.5783 152.211 43.5447 151.969 43.3431Z" fill="#B1291D" fill-opacity="0.9"/>
</g>
<defs>
<clipPath id="clip0_219_724">
<rect width="160" height="160" fill="white" transform="matrix(0 1 -1 0 160 0)"/>
</clipPath>
</defs>
</svg>
