<svg width="33" height="33" viewBox="0 0 33 33" fill="none" xmlns="http://www.w3.org/2000/svg">
<path d="M25.377 6.036C24.9973 6.036 24.6261 6.14861 24.3103 6.35958C23.9946 6.57055 23.7485 6.87041 23.6032 7.22125C23.4578 7.57208 23.4198 7.95813 23.4939 8.33057C23.568 8.70302 23.7508 9.04513 24.0194 9.31365C24.2879 9.58216 24.63 9.76502 25.0024 9.83911C25.3749 9.91319 25.7609 9.87517 26.1118 9.72985C26.4626 9.58453 26.7625 9.33844 26.9734 9.0227C27.1844 8.70695 27.297 8.33574 27.297 7.956C27.297 7.44678 27.0947 6.95843 26.7347 6.59836C26.3746 6.23829 25.8862 6.036 25.377 6.036ZM32.737 9.908C32.7059 8.58048 32.4573 7.26704 32.001 6.02C31.5942 4.95301 30.961 3.98685 30.145 3.188C29.3527 2.36788 28.3843 1.73868 27.313 1.348C26.0693 0.877857 24.7544 0.623536 23.425 0.596C21.729 0.5 21.185 0.5 16.833 0.5C12.481 0.5 11.937 0.5 10.241 0.596C8.91165 0.623536 7.59676 0.877857 6.35301 1.348C5.28369 1.74264 4.3161 2.3713 3.52101 3.188C2.70089 3.98028 2.07169 4.9487 1.68101 6.02C1.21087 7.26375 0.956544 8.57864 0.929008 9.908C0.833008 11.604 0.833008 12.148 0.833008 16.5C0.833008 20.852 0.833008 21.396 0.929008 23.092C0.956544 24.4214 1.21087 25.7363 1.68101 26.98C2.07169 28.0513 2.70089 29.0197 3.52101 29.812C4.3161 30.6287 5.28369 31.2574 6.35301 31.652C7.59676 32.1221 8.91165 32.3765 10.241 32.404C11.937 32.5 12.481 32.5 16.833 32.5C21.185 32.5 21.729 32.5 23.425 32.404C24.7544 32.3765 26.0693 32.1221 27.313 31.652C28.3843 31.2613 29.3527 30.6321 30.145 29.812C30.9646 29.0161 31.5983 28.0491 32.001 26.98C32.4573 25.733 32.7059 24.4195 32.737 23.092C32.737 21.396 32.833 20.852 32.833 16.5C32.833 12.148 32.833 11.604 32.737 9.908ZM29.857 22.9C29.8454 23.9156 29.6614 24.9219 29.313 25.876C29.0575 26.5723 28.6472 27.2015 28.113 27.716C27.594 28.2448 26.9662 28.6543 26.273 28.916C25.3189 29.2644 24.3126 29.4484 23.297 29.46C21.697 29.54 21.105 29.556 16.897 29.556C12.689 29.556 12.097 29.556 10.497 29.46C9.44243 29.4797 8.39236 29.3174 7.39301 28.98C6.73026 28.7049 6.13118 28.2965 5.63301 27.78C5.10195 27.266 4.69676 26.6363 4.44901 25.94C4.05838 24.9722 3.84172 23.9431 3.80901 22.9C3.80901 21.3 3.71301 20.708 3.71301 16.5C3.71301 12.292 3.71301 11.7 3.80901 10.1C3.81618 9.06169 4.00573 8.03271 4.36901 7.06C4.65068 6.38466 5.08303 5.78265 5.63301 5.3C6.11911 4.74987 6.71987 4.31295 7.39301 4.02C8.36829 3.66807 9.3962 3.48413 10.433 3.476C12.033 3.476 12.625 3.38 16.833 3.38C21.041 3.38 21.633 3.38 23.233 3.476C24.2486 3.48765 25.2549 3.67159 26.209 4.02C26.9361 4.28984 27.5887 4.72855 28.113 5.3C28.6373 5.79149 29.047 6.39237 29.313 7.06C29.6686 8.03429 29.8527 9.06285 29.857 10.1C29.937 11.7 29.953 12.292 29.953 16.5C29.953 20.708 29.937 21.3 29.857 22.9ZM16.833 8.292C15.2103 8.29516 13.6249 8.77924 12.2773 9.68307C10.9296 10.5869 9.88001 11.8699 9.26122 13.37C8.64243 14.8701 8.48217 16.5199 8.80068 18.1111C9.11919 19.7022 9.90219 21.1633 11.0507 22.3096C12.1993 23.4559 13.6618 24.236 15.2536 24.5514C16.8453 24.8669 18.4949 24.7034 19.9938 24.0817C21.4926 23.4599 22.7736 22.4079 23.6748 21.0585C24.576 19.709 25.057 18.1227 25.057 16.5C25.0591 15.4202 24.8477 14.3506 24.435 13.3527C24.0222 12.3549 23.4163 11.4485 22.652 10.6857C21.8877 9.92287 20.9801 9.31868 19.9815 8.90789C18.9828 8.49709 17.9128 8.28778 16.833 8.292ZM16.833 21.828C15.7792 21.828 14.7491 21.5155 13.8729 20.9301C12.9967 20.3446 12.3138 19.5125 11.9106 18.5389C11.5073 17.5654 11.4018 16.4941 11.6074 15.4606C11.813 14.427 12.3204 13.4777 13.0655 12.7325C13.8107 11.9874 14.76 11.48 15.7936 11.2744C16.8271 11.0688 17.8984 11.1743 18.8719 11.5776C19.8455 11.9808 20.6776 12.6637 21.2631 13.5399C21.8485 14.4161 22.161 15.4462 22.161 16.5C22.161 17.1997 22.0232 17.8925 21.7554 18.5389C21.4877 19.1854 21.0952 19.7727 20.6005 20.2675C20.1057 20.7622 19.5184 21.1547 18.8719 21.4224C18.2255 21.6902 17.5327 21.828 16.833 21.828Z" fill="#232321"/>
</svg>
