<svg width="32" height="33" viewBox="0 0 32 33" fill="none" xmlns="http://www.w3.org/2000/svg">
<path d="M-0.0032959 16.5016C0.0799124 11.9603 1.68327 8.16797 4.80999 5.12766C7.9367 2.08736 11.6651 0.541604 15.9983 0.5C20.6644 0.583208 24.4888 2.17697 27.4683 5.28128C30.4478 8.38559 31.9583 12.1268 31.9999 16.5016C31.9167 21.0012 30.3133 24.784 27.1866 27.8467C24.0599 30.9062 20.3315 32.4584 15.9983 32.5C14.4974 32.5 12.9996 32.2696 11.4987 31.8119C11.7899 31.3543 12.0811 30.8326 12.3723 30.2502C12.7052 29.5429 13.1212 28.2084 13.6237 26.2498C13.7485 25.7089 13.9373 24.9792 14.1869 24.0608C14.4782 24.56 14.9774 25.0177 15.6879 25.4369C17.5633 26.3106 19.5411 26.2274 21.6245 25.1873C23.7911 23.9359 25.292 21.9997 26.1241 19.3755C26.873 16.6264 26.7802 14.0726 25.8425 11.7203C24.9048 9.36489 23.2278 7.66872 20.8116 6.62541C17.7713 5.75172 14.811 5.84453 11.9371 6.90704C9.06321 7.96955 7.06301 9.79373 5.9365 12.3764C5.64527 13.3333 5.46925 14.2838 5.40525 15.2215C5.34124 16.1592 5.37324 17.0745 5.49805 17.9705C5.62287 18.8666 5.9365 19.6699 6.43575 20.3772C6.935 21.0845 7.60387 21.6285 8.43595 22.003C8.64397 22.0862 8.81039 22.0862 8.9352 22.003C9.10161 21.9197 9.26803 21.5869 9.43445 21.0044C9.60086 20.422 9.66487 20.0251 9.62327 19.8171C9.58166 19.7339 9.49845 19.5867 9.37364 19.3787C8.49995 17.9609 8.20553 16.4728 8.49996 14.911C8.79118 13.3493 9.43765 12.0244 10.4361 10.9426C11.9787 9.56651 13.7805 8.81763 15.8415 8.69282C17.9025 8.56801 19.6659 9.13126 21.122 10.3794C21.9125 11.2947 22.4245 12.3988 22.6518 13.6917C22.879 14.9846 22.8822 16.2232 22.6518 17.4105C22.4213 18.5978 22.0149 19.7115 21.4324 20.7548C20.3891 22.3806 19.1602 23.2127 17.7457 23.2543C16.9136 23.2127 16.2351 22.8894 15.7135 22.2846C15.1918 21.6797 15.035 20.982 15.2462 20.1916C15.3294 19.7339 15.5791 18.8378 15.9951 17.5033C16.4111 16.1688 16.6416 15.1703 16.6832 14.5046C16.5584 12.9204 15.8287 12.1076 14.4942 12.066C13.4508 12.1908 12.6828 12.6612 12.1803 13.4709C11.6779 14.2806 11.409 15.2119 11.3674 16.252C11.4923 17.4617 11.6811 18.2938 11.9307 18.7514C11.4731 20.6268 11.1178 22.1278 10.8682 23.2511C10.785 23.5423 10.5546 24.4384 10.1801 25.9393C9.80569 27.4403 9.59766 28.586 9.55606 29.3765V31.1271C6.59896 29.7509 4.26273 27.7635 2.55696 25.1585C0.851189 22.5534 -0.0032959 19.6667 -0.0032959 16.5016Z" fill="#232321"/>
</svg>
