<?xml version="1.0" encoding="UTF-8"?>
<svg id="Layer_1" xmlns="http://www.w3.org/2000/svg" viewBox="0 0 583.63 227.98">
  <defs>
    <style>
      .cls-1 {
        fill: rgba(35, 35, 33, .5);
      }

      .cls-2 {
        fill: rgba(35, 35, 33, .1);
      }

      .cls-3 {
        fill: rgba(36, 97, 166, .9);
      }
    </style>
  </defs>
  <path class="cls-2" d="M115.54,133.71c-1.16,0-2.57-.08-4.23-.25-1.66-.17-2.49-.58-2.49-1.24,0-1,.91-2.32,2.74-3.98,1.83-1.83,3.82-3.4,5.98-4.73,2.32-1.49,3.9-2.24,4.73-2.24,1.66,0,3.24.08,4.73.25,1.66.17,3.32.25,4.98.25,9.13,0,18.84-1,29.13-2.99,10.46-2.16,19.67-5.48,27.64-9.96,5.64-3.15,11.04-6.97,16.18-11.45,5.15-4.65,9.38-9.88,12.7-15.69,3.32-5.98,4.98-12.37,4.98-19.17,0-3.98-.75-7.8-2.24-11.45-1.33-3.82-3.15-7.3-5.48-10.46-4.48-5.98-10.21-10.87-17.18-14.69s-14.53-6.72-22.66-8.71c-7.97-1.99-16.02-3.4-24.15-4.23-8.13-.83-15.69-1.25-22.66-1.25-8.96,0-18.59.58-28.88,1.74-10.29,1-20.34,3.07-30.13,6.22-9.63,3.15-18.26,7.8-25.9,13.94-7.47,5.98-12.95,13.86-16.43,23.65-1.16,3.49-1.74,7.3-1.74,11.45,0,3.82.66,7.64,1.99,11.45,1.49,3.82,4.07,6.64,7.72,8.47.33.17,1.33.25,2.99.25h3.49c.33,0,1,.08,1.99.25,1.16,0,1.74.33,1.74,1,0,1-.83,1.83-2.49,2.49-1.49.66-2.66,1-3.49,1-3.65,0-6.47-1.08-8.47-3.24-1.99-2.16-3.65-3.24-4.98-3.24-.17,0-.33.08-.5.25-.17.17-.42.58-.75,1.25-.33.5-.66.75-1,.75-1,0-1.91-.83-2.74-2.49-.66-1.83-1.24-3.74-1.74-5.73-.33-2.16-.5-3.65-.5-4.48,0-2.32.25-4.98.75-7.97.66-2.99,1.33-5.56,1.99-7.72,3.49-11.45,9.05-21,16.68-28.64,7.64-7.8,16.43-14.03,26.39-18.67,10.13-4.81,20.75-8.22,31.87-10.21C107.4,1.33,118.44.25,129.23.25c7.97,0,16.35.58,25.15,1.74,8.96,1,17.76,2.82,26.39,5.48,8.8,2.66,16.93,6.31,24.4,10.96,7.64,4.48,14.03,10.13,19.17,16.93,2.82,3.82,5.06,7.97,6.72,12.45,1.66,4.48,2.49,9.13,2.49,13.94,0,7.8-1.91,14.86-5.73,21.17s-8.71,11.87-14.69,16.68-12.2,8.88-18.68,12.2c-6.81,3.49-14.77,6.97-23.9,10.46-9.13,3.32-18.43,6.06-27.89,8.22-9.3,2.16-17.85,3.24-25.65,3.24h-1.49ZM18.92,205.18c-1.83,0-3.98-.08-6.47-.25-2.49-.17-4.48-.66-5.98-1.49-.66-.5-1.91-1.33-3.73-2.49-1.83-1-2.74-1.99-2.74-2.99,0-1.16.5-1.74,1.49-1.74.83.17,1.24-.42,1.24-1.74s-.25-2.66-.75-3.98c-.5-1.33-.75-2.66-.75-3.98,0-1.49.41-3.57,1.24-6.22.83-2.49,2.16-3.74,3.98-3.74.5,0,.75.25.75.75,0,1.66-.41,3.24-1.24,4.73-1,1.49-1.49,2.99-1.49,4.48,0,2.32,1,4.57,2.99,6.72,1.83,2.16,4.15,3.9,6.97,5.23,2.66,1.49,5.06,2.24,7.22,2.24h2.74c1,0,1.91-.08,2.74-.25,8.3-1.16,16.02-5.06,23.16-11.7,7.3-6.64,14.03-15.02,20.17-25.15,6.31-10.29,12.04-21.41,17.18-33.37,5.15-12.12,9.79-24.15,13.94-36.1,4.15-11.95,7.8-23.07,10.96-33.37,3.32-10.29,6.06-18.68,8.22-25.15.83-2.66,1.74-4.73,2.74-6.22,1-1.66,2.57-3.32,4.73-4.98,2.99-2.32,6.47-3.98,10.46-4.98,4.15-1.16,8.05-1.74,11.7-1.74.33,0,.83.08,1.49.25.66.17,1,.58,1,1.24s-.58,1.16-1.74,1.49c-1,.17-1.66.25-1.99.25-2.32,0-4.81,1.74-7.47,5.23-2.49,3.49-4.98,7.89-7.47,13.2-2.49,5.31-4.81,10.79-6.97,16.43-2.16,5.64-4.07,10.79-5.73,15.44-1.49,4.48-2.57,7.64-3.24,9.46-1.99,5.64-3.98,11.37-5.98,17.18-1.99,5.64-4.07,11.29-6.22,16.93-2.49,6.64-5.15,13.28-7.97,19.92-2.66,6.64-5.73,13.11-9.21,19.42-5.15,9.3-10.62,17.76-16.43,25.4-5.64,7.8-12.45,13.94-20.42,18.43-7.8,4.65-17.68,7.05-29.63,7.22h-3.49ZM215.45,171.81c-4.98,0-7.47-2.74-7.47-8.22,0-3.82,1-9.13,2.99-15.94,1.99-6.81,4.32-14.03,6.97-21.66,2.82-7.8,5.56-15.11,8.22-21.91,2.82-6.97,4.98-12.45,6.47-16.43,2.16-5.81,4.81-12.53,7.97-20.17,3.15-7.64,6.81-15.35,10.96-23.16,4.15-7.97,8.8-15.27,13.94-21.91,5.31-6.64,11.12-12.03,17.43-16.18,6.47-4.15,13.53-6.22,21.17-6.22,8.3,0,13.78,1.49,16.43,4.48,2.82,2.99,4.23,6.06,4.23,9.21,0,1.33-.5,2.16-1.49,2.49-.83.33-1.24-.08-1.24-1.25,0-3.49-1.41-6.31-4.23-8.47-2.66-2.32-5.98-3.49-9.96-3.49-6.81,0-13.28,2.57-19.42,7.72-6.14,5.15-11.87,11.79-17.18,19.92-5.31,8.13-10.13,16.77-14.44,25.9-4.32,8.96-8.13,17.51-11.45,25.65-3.15,7.97-5.64,14.36-7.47,19.17-1.16,3.15-2.74,7.3-4.73,12.45-1.99,4.98-3.98,10.29-5.98,15.94-1.83,5.48-3.4,10.79-4.73,15.94-1.33,4.98-1.99,9.05-1.99,12.2,0,1,.17,2.16.5,3.49s1.16,1.99,2.49,1.99c.83,0,1.49-.17,1.99-.5.66-.33,1.33-.66,1.99-1,3.82-2.16,7.47-5.06,10.96-8.71,3.65-3.82,6.97-7.89,9.96-12.2,2.99-4.48,5.48-8.55,7.47-12.2.17.17.25.5.25,1,0,1.33-1,3.4-2.99,6.23-1.83,2.82-3.74,5.56-5.73,8.22-1.83,2.49-2.82,4.07-2.99,4.73-.17,1.16-.41,2.16-.75,2.99-.33.66-.75,1.58-1.25,2.74-1.99,1.99-4.57,4.32-7.72,6.97-2.99,2.66-6.14,5.06-9.46,7.22-3.32,1.99-6.56,2.99-9.71,2.99ZM248.46,172.56c-2.66,0-4.4-1-5.23-2.99-.66-2.16-1-4.32-1-6.47,0-7.8,1.49-16.18,4.48-25.15,2.99-8.96,6.89-17.51,11.7-25.65,4.81-8.3,10.04-15.11,15.69-20.42,5.98-5.48,13.03-8.22,21.16-8.22,3.32,0,6.56.42,9.71,1.25,3.32.66,6.56,1.66,9.71,2.99,2.82-1.99,5.89-3.74,9.21-5.23,3.32-1.49,6.72-2.24,10.21-2.24.83,0,1.49.5,1.99,1.49v.75c0,.5-.25.75-.75.75-.33-.17-.66-.25-1-.25-2.66,0-5.56,2.08-8.71,6.23-3.15,3.98-6.31,9.13-9.46,15.44s-6.06,12.95-8.71,19.92c-2.49,6.97-4.57,13.36-6.23,19.17-1.49,5.81-2.24,10.21-2.24,13.2,0,1.16.17,2.49.5,3.98.5,1.49,1.49,2.24,2.99,2.24.83,0,1.49-.17,1.99-.5l1.99-1c3.65-2.16,7.22-5.06,10.71-8.71,3.65-3.82,6.97-7.89,9.96-12.2,3.15-4.48,5.73-8.55,7.72-12.2.17.17.25.5.25,1,0,1-.58,2.49-1.74,4.48-1.16,1.83-2.49,3.82-3.98,5.98-1.49,2.16-2.9,4.07-4.23,5.73-1.16,1.66-1.74,2.66-1.74,2.99-.17,1.16-.42,2.16-.75,2.99-.33.66-.83,1.58-1.49,2.74-2.16,2.16-4.9,4.65-8.22,7.47-3.32,2.82-6.81,5.31-10.46,7.47-3.49,1.99-6.89,2.99-10.21,2.99-5.15,0-7.72-2.74-7.72-8.22,0-3.32.66-7.14,1.99-11.45,1.49-4.48,3.15-8.88,4.98-13.2,1.99-4.48,3.73-8.22,5.23-11.21v-.75c0-.33-.08-.5-.25-.5s-.42.17-.75.5c-1.99,2.66-4.9,6.47-8.71,11.45-3.82,4.98-8.05,10.04-12.7,15.19-4.48,4.98-9.05,9.3-13.7,12.95-4.65,3.49-8.71,5.23-12.2,5.23ZM259.42,161.85c1.83,0,4.07-1.16,6.72-3.49,2.82-2.49,5.73-5.39,8.71-8.71,3.15-3.49,5.89-6.81,8.22-9.96,2.49-3.15,4.23-5.48,5.23-6.97,1.99-2.99,4.23-6.72,6.72-11.21,2.66-4.48,4.9-9.13,6.72-13.94,1.99-4.81,2.99-8.88,2.99-12.2,0-5.15-2.57-7.72-7.72-7.72-2.99,0-6.14,1.33-9.46,3.98-3.32,2.66-5.98,5.06-7.97,7.22-2.16,2.66-4.65,6.47-7.47,11.45-2.66,4.98-5.15,10.38-7.47,16.18s-4.32,11.37-5.98,16.68c-1.49,5.31-2.24,9.71-2.24,13.2,0,1,.17,2.16.5,3.49s1.16,1.99,2.49,1.99ZM314.46,175.3c-.17,0-.25-.08-.25-.25,0-.66.33-1.33,1-1.99.5-.66.83-1.16,1-1.49,1.16-1.83,2.57-4.9,4.23-9.21,1.49-4.48,2.99-9.46,4.48-14.94,1.66-5.64,3.15-11.29,4.48-16.93,1.49-5.81,2.82-11.12,3.98-15.94,1.16-4.81,1.99-8.47,2.49-10.96.33-1.33.66-3.07,1-5.23.33-2.16.83-4.32,1.49-6.47.66-2.16,1.41-3.57,2.24-4.23,1.66-1.33,3.9-2.49,6.72-3.49,2.99-1,6.06-1.74,9.21-2.24,3.15-.66,5.73-1,7.72-1,.33,0,.75.17,1.24.5.5.33.83.66,1,1v.75c0,.5-.17.75-.5.75-.33-.17-.66-.25-1-.25-3.65,0-6.89,2.07-9.71,6.23-2.82,3.98-5.23,8.96-7.22,14.94-1.99,5.81-3.65,11.45-4.98,16.93s-2.32,9.63-2.99,12.45c5.31-9.13,11.37-17.84,18.18-26.14,6.97-8.47,15.11-15.27,24.4-20.42,1.16-.66,2.49-1.33,3.98-1.99,1.49-.83,2.82-1.24,3.98-1.24,2.16,0,3.49,1,3.98,2.99.5,1.83.75,3.57.75,5.23,0,2.16-.75,5.31-2.24,9.46-1.49,4.15-3.24,8.3-5.23,12.45-1.83,3.98-3.24,7.14-4.23,9.46-1,2.66-2.16,6.06-3.49,10.21-1.33,4.15-2.49,8.3-3.49,12.45-1,4.15-1.49,7.64-1.49,10.46,0,1.16.17,2.49.5,3.98.33,1.49,1.24,2.24,2.74,2.24.83,0,1.49-.17,1.99-.5l1.99-1c3.82-2.16,7.47-5.06,10.96-8.71,3.65-3.82,6.97-7.89,9.96-12.2,2.99-4.48,5.48-8.55,7.47-12.2.17.17.25.5.25,1,0,1-.58,2.49-1.74,4.48-1.16,1.83-2.49,3.82-3.98,5.98-1.49,2.16-2.9,4.07-4.23,5.73-1.16,1.66-1.74,2.66-1.74,2.99-.17,1.16-.41,2.16-.75,2.99-.33.66-.75,1.58-1.25,2.74-1.99,1.99-4.9,4.48-8.71,7.47-3.65,2.82-7.47,5.4-11.45,7.72-3.82,2.16-7.22,3.24-10.21,3.24-2.66,0-4.48-1-5.48-2.99-.83-2.16-1.24-4.4-1.24-6.72,0-4.48.91-9.79,2.74-15.94,1.83-6.31,3.98-12.53,6.47-18.68,2.49-6.31,4.57-11.62,6.23-15.94.5-1.33,1.24-3.4,2.24-6.23,1.16-2.82,1.74-4.81,1.74-5.98,0-.83-.17-1.74-.5-2.74-.17-1-.91-1.49-2.24-1.49-1.66,0-3.82,1.08-6.47,3.24-2.49,2.16-4.4,3.9-5.73,5.23-7.14,7.97-13.28,16.85-18.43,26.64-5.15,9.63-9.46,19.59-12.95,29.88-.5,1.33-.83,2.32-1,2.99,0,.5-.66,1.16-1.99,1.99-.5.33-2.08,1.25-4.73,2.74-2.49,1.49-4.9,2.91-7.22,4.23-2.49,1.33-3.82,1.99-3.98,1.99ZM404.71,172.81c-2.66,0-4.48-.66-5.48-1.99-1-1.33-1.49-3.24-1.49-5.73,0-4.32,1-9.71,2.99-16.18,1.99-6.64,4.48-13.61,7.47-20.92,2.99-7.47,5.89-14.53,8.71-21.17,2.99-6.81,5.39-12.37,7.22-16.68-2.16.17-4.32.25-6.47.25s-4.4.08-6.72.25c-.33-.33-.5-.66-.5-1,0-1,.66-2.16,1.99-3.49s2.82-2.41,4.48-3.24c1.83-1,3.15-1.49,3.98-1.49h6.97c1.66-3.98,3.32-7.97,4.98-11.95,1.83-3.98,3.49-7.97,4.98-11.95.83-2.16,1.74-3.9,2.74-5.23,1.16-1.49,2.74-2.9,4.73-4.23,2.82-1.83,6.31-3.32,10.46-4.48s7.8-1.74,10.96-1.74c.33,0,.66.17,1,.5.5.33.83.58,1,.75v1c0,.5-.25.66-.75.5-.33-.17-.66-.25-1-.25-1.99,0-4.32,1.66-6.97,4.98-2.66,3.15-5.39,6.97-8.22,11.45-2.82,4.48-5.31,8.8-7.47,12.95-1.99,3.98-3.4,6.72-4.23,8.22h17.93c2.66-.17,5.31-.41,7.97-.75l.25.5c-.17,0-.25.08-.25.25s-.08.25-.25.25c-.5.5-1.74,1.33-3.73,2.49-1.99,1-3.98,1.91-5.98,2.74-1.99.83-3.4,1.33-4.23,1.49-2.66.33-5.31.58-7.97.75-2.49.17-5.06.25-7.72.25-1.66,3.65-3.82,8.47-6.47,14.44s-5.31,12.37-7.97,19.17c-2.66,6.64-4.9,13.03-6.72,19.17-1.66,5.98-2.49,10.96-2.49,14.94,0,1,.17,2.16.5,3.49.33,1.33,1.16,1.99,2.49,1.99,1.16,0,2.32-.41,3.49-1.24,3.65-2.16,7.22-5.06,10.71-8.71,3.65-3.82,6.97-7.89,9.96-12.2,3.15-4.48,5.64-8.55,7.47-12.2.33.17.5.5.5,1,0,1-.58,2.49-1.74,4.48-1.16,1.83-2.49,3.82-3.98,5.98-1.49,2.16-2.9,4.07-4.23,5.73-1.16,1.66-1.74,2.66-1.74,2.99-.17,1.33-.5,2.32-1,2.99-.33.5-.75,1.41-1.25,2.74-2.16,1.99-4.9,4.48-8.22,7.47-3.32,2.82-6.81,5.31-10.46,7.47-3.65,2.16-7.05,3.24-10.21,3.24ZM490.47,64.99c-1.33,0-3.4-.5-6.22-1.49-2.66-1.16-3.98-2.57-3.98-4.23v-.25c.17-.17.25-.33.25-.5.83-1.66,2.66-2.66,5.48-2.99,2.99-.33,5.23-.83,6.72-1.49,3.32-1.33,6.56-2.41,9.71-3.24s6.14-2.32,8.96-4.48c.66.33,1,.66,1,1,0,.66-.75,1.58-2.24,2.74-1.33,1.16-2.24,2.16-2.74,2.99-.66,1-2.16,2.49-4.48,4.48-2.16,1.83-4.48,3.57-6.97,5.23-2.49,1.49-4.32,2.24-5.48,2.24ZM448.38,172.81c-2.66,0-4.48-.66-5.48-1.99-1-1.33-1.49-3.24-1.49-5.73,0-5.48,1.08-12.12,3.24-19.92,2.32-7.8,4.9-15.69,7.72-23.65,2.82-8.13,5.06-15.35,6.72-21.66.66-2.32,2.24-3.9,4.73-4.73,2.66-1,4.9-2.16,6.72-3.49,2.66-1.83,5.48-3.32,8.47-4.48,2.99-1.33,6.14-1.99,9.46-1.99.83,0,1.33.17,1.49.5.33.33.5.58.5.75,0,1-.58,1.49-1.74,1.49-2.32,0-4.73,1.41-7.22,4.23-2.49,2.66-4.98,6.14-7.47,10.46-2.49,4.32-4.73,8.8-6.72,13.45-1.99,4.65-3.74,8.96-5.23,12.95-1.49,3.82-2.49,6.64-2.99,8.47-.83,2.66-1.66,5.81-2.49,9.46-.83,3.49-1.24,6.72-1.24,9.71,0,1.16.17,2.57.5,4.23.33,1.49,1.33,2.24,2.99,2.24,1.16,0,2.41-.41,3.73-1.24,3.65-2.16,7.22-5.06,10.71-8.71,3.65-3.82,6.97-7.89,9.96-12.2,3.15-4.48,5.64-8.55,7.47-12.2.33.17.5.5.5,1,0,1-.58,2.49-1.74,4.48-1.16,1.83-2.49,3.82-3.98,5.98-1.49,2.16-2.9,4.07-4.23,5.73-1.16,1.66-1.74,2.66-1.74,2.99-.17,1.33-.42,2.32-.75,2.99-.33.5-.83,1.41-1.49,2.74-1.99,1.99-4.65,4.48-7.97,7.47-3.32,2.82-6.81,5.31-10.46,7.47-3.65,2.16-7.14,3.24-10.46,3.24ZM469.89,175.3c-.17,0-.25-.08-.25-.25,0-.66.33-1.33,1-1.99.5-.66.83-1.16,1-1.49,1.16-1.83,2.57-4.9,4.23-9.21,1.49-4.48,2.99-9.46,4.48-14.94,1.66-5.64,3.15-11.29,4.48-16.93,1.49-5.81,2.82-11.12,3.98-15.94,1.16-4.81,1.99-8.47,2.49-10.96.33-1.33.66-3.07,1-5.23.33-2.16.83-4.32,1.49-6.47.66-2.16,1.41-3.57,2.24-4.23,1.66-1.33,3.9-2.49,6.72-3.49,2.99-1,6.06-1.74,9.21-2.24,3.15-.66,5.73-1,7.72-1,.33,0,.75.17,1.24.5.5.33.83.66,1,1v.75c0,.5-.17.75-.5.75-.33-.17-.66-.25-1-.25-3.65,0-6.89,2.07-9.71,6.23-2.82,3.98-5.23,8.96-7.22,14.94-1.99,5.81-3.65,11.45-4.98,16.93-1.33,5.48-2.32,9.63-2.99,12.45,5.31-9.13,11.37-17.84,18.18-26.14,6.97-8.47,15.11-15.27,24.4-20.42,1.16-.66,2.49-1.33,3.98-1.99,1.49-.83,2.82-1.24,3.98-1.24,2.16,0,3.49,1,3.98,2.99.5,1.83.75,3.57.75,5.23,0,2.16-.75,5.31-2.24,9.46-1.49,4.15-3.24,8.3-5.23,12.45-1.83,3.98-3.24,7.14-4.23,9.46-1,2.66-2.16,6.06-3.49,10.21-1.33,4.15-2.49,8.3-3.49,12.45-1,4.15-1.49,7.64-1.49,10.46,0,1.16.17,2.49.5,3.98.33,1.49,1.24,2.24,2.74,2.24.83,0,1.49-.17,1.99-.5l1.99-1c3.82-2.16,7.47-5.06,10.96-8.71,3.65-3.82,6.97-7.89,9.96-12.2,2.99-4.48,5.48-8.55,7.47-12.2.17.17.25.5.25,1,0,1-.58,2.49-1.74,4.48-1.16,1.83-2.49,3.82-3.98,5.98-1.49,2.16-2.9,4.07-4.23,5.73-1.16,1.66-1.74,2.66-1.74,2.99-.17,1.16-.41,2.16-.75,2.99-.33.66-.75,1.58-1.24,2.74-1.99,1.99-4.9,4.48-8.72,7.47-3.65,2.82-7.47,5.4-11.45,7.72-3.82,2.16-7.22,3.24-10.21,3.24-2.66,0-4.48-1-5.48-2.99-.83-2.16-1.24-4.4-1.24-6.72,0-4.48.91-9.79,2.74-15.94,1.83-6.31,3.98-12.53,6.47-18.68,2.49-6.31,4.56-11.62,6.22-15.94.5-1.33,1.24-3.4,2.24-6.23,1.16-2.82,1.74-4.81,1.74-5.98,0-.83-.17-1.74-.5-2.74-.17-1-.91-1.49-2.24-1.49-1.66,0-3.82,1.08-6.47,3.24-2.49,2.16-4.4,3.9-5.73,5.23-7.14,7.97-13.28,16.85-18.43,26.64-5.15,9.63-9.46,19.59-12.95,29.88-.5,1.33-.83,2.32-1,2.99,0,.5-.66,1.16-1.99,1.99-.5.33-2.08,1.25-4.73,2.74-2.49,1.49-4.9,2.91-7.22,4.23-2.49,1.33-3.82,1.99-3.98,1.99Z"/>
  <path class="cls-1" d="M60.27,60.97v12.24h-20.67v56.86h-14.53v-56.86H4.3v-12.24h55.97ZM109.95,130.06v-30.84h-27v30.84h-14.3V60.97h14.3v26.34h27v-26.34h14.34v69.09h-14.34ZM186.22,99.87h-33.56v17.76h38.25v12.42h-52.36V60.97h50.67v12.24h-36.56v14.67h33.56v12ZM40.63,227.98c-9.88,0-17.42-2.69-22.64-8.06-7-6.59-10.5-16.09-10.5-28.5s3.5-22.16,10.5-28.5c5.22-5.38,12.77-8.06,22.64-8.06s17.42,2.69,22.64,8.06c6.97,6.34,10.45,15.84,10.45,28.5s-3.48,21.91-10.45,28.5c-5.22,5.38-12.77,8.06-22.64,8.06ZM54.27,209.42c3.34-4.22,5.02-10.22,5.02-18s-1.69-13.73-5.06-17.95c-3.34-4.25-7.87-6.38-13.59-6.38s-10.28,2.11-13.69,6.33c-3.41,4.22-5.11,10.22-5.11,18s1.7,13.78,5.11,18c3.41,4.22,7.97,6.33,13.69,6.33s10.27-2.11,13.64-6.33ZM140.66,226.06h-14.44l-28.22-49.08v49.08h-13.45v-69.09h15.14l27.52,48.23v-48.23h13.45v69.09ZM210.22,201.22h-14.67v24.84h-14.34v-69.09h30.09c6.94,0,12.47,1.78,16.59,5.34,4.12,3.56,6.19,9.08,6.19,16.55,0,8.16-2.06,13.92-6.19,17.3s-10.02,5.06-17.67,5.06ZM216.97,186.82c1.88-1.66,2.81-4.28,2.81-7.88s-.95-6.16-2.86-7.69c-1.88-1.53-4.52-2.3-7.92-2.3h-13.45v20.34h13.45c3.41,0,6.06-.83,7.97-2.48ZM244.91,156.97h14.44v56.67h34.22v12.42h-48.66v-69.09ZM344.05,211.86h-25.45l-4.78,14.2h-15.09l24.66-69.09h16.31l24.47,69.09h-15.66l-4.45-14.2ZM340.02,199.95l-8.62-27.19-8.91,27.19h17.53ZM428.85,226.06h-14.44l-28.22-49.08v49.08h-13.45v-69.09h15.14l27.52,48.23v-48.23h13.45v69.09ZM492.55,156.97v12.24h-20.67v56.86h-14.53v-56.86h-20.77v-12.24h55.97ZM499.91,156.97h14.34v69.09h-14.34v-69.09ZM583.63,226.06h-14.44l-28.22-49.08v49.08h-13.45v-69.09h15.14l27.52,48.23v-48.23h13.45v69.09Z"/>
  <path class="cls-3" d="M238.96,113.15l-.96,18.53c-.19,3.58-.09,5.85.28,6.81.41.93,1.15,1.71,2.23,2.32,1.08.61,3.13.99,6.15,1.15l-.09,1.8-33.84-1.75.09-1.8c3.06.16,5.13-.01,6.24-.51,1.14-.53,1.94-1.24,2.41-2.12.5-.89.85-3.12,1.03-6.69l2.22-42.91c.19-3.58.07-5.83-.33-6.76-.37-.96-1.1-1.75-2.17-2.36-1.08-.61-3.13-.99-6.15-1.15l.09-1.8,30.72,1.59c8,.42,13.82,1.27,17.47,2.57,3.65,1.3,6.57,3.5,8.75,6.61,2.19,3.08,3.18,6.62,2.97,10.62-.25,4.88-2.22,8.82-5.89,11.82-2.35,1.9-5.56,3.25-9.65,4.05l14.74,23.21c1.93,3,3.32,4.88,4.16,5.64,1.28,1.08,2.8,1.71,4.55,1.9l-.09,1.8-20.82-1.08-19.75-31.24-4.34-.23ZM240.64,80.72l-1.5,28.96,2.78.15c4.52.23,7.92,0,10.21-.69,2.29-.73,4.12-2.13,5.5-4.21,1.41-2.11,2.21-4.9,2.39-8.38.26-5.04-.73-8.82-2.98-11.35-2.22-2.53-5.94-3.93-11.18-4.2l-5.22-.27ZM311.92,140.4c-5.81,4.62-10.93,6.82-15.35,6.59-2.6-.14-4.72-1.09-6.35-2.87-1.63-1.81-2.38-4-2.25-6.57.18-3.48,1.84-6.52,4.97-9.13,3.14-2.64,9.85-6.01,20.13-10.1l.24-4.58c.18-3.45.1-5.62-.25-6.51-.31-.93-.97-1.75-1.97-2.45-1.01-.74-2.16-1.14-3.46-1.21-2.11-.11-3.88.27-5.29,1.14-.88.54-1.33,1.2-1.37,1.98-.04.68.38,1.55,1.23,2.61,1.16,1.46,1.71,2.84,1.64,4.14-.08,1.59-.76,2.93-2.02,4-1.23,1.04-2.8,1.52-4.72,1.42-2.05-.11-3.74-.81-5.07-2.12-1.3-1.31-1.91-2.79-1.82-4.45.12-2.34,1.16-4.52,3.13-6.54,1.96-2.05,4.63-3.56,8.01-4.52,3.38-.97,6.85-1.36,10.43-1.17,4.32.22,7.69,1.33,10.1,3.31,2.44,1.95,3.98,4.02,4.62,6.21.38,1.39.45,4.54.19,9.45l-.92,17.7c-.11,2.08-.1,3.4.04,3.96.14.53.36.93.67,1.21.31.28.68.43,1.1.45.85.04,1.74-.51,2.68-1.67l1.4,1.25c-1.75,2.32-3.53,3.99-5.34,5-1.78.98-3.77,1.42-5.98,1.3-2.6-.13-4.6-.84-6-2.12-1.4-1.31-2.2-3.21-2.39-5.7ZM312.1,136.84l.79-15.26c-4.05,2.1-7.11,4.42-9.16,6.96-1.36,1.69-2.08,3.43-2.18,5.22-.08,1.49.39,2.84,1.4,4.03.77.92,1.88,1.42,3.35,1.49,1.62.09,3.56-.73,5.8-2.44ZM350.82,81.3c2.11.11,3.86.95,5.25,2.52,1.39,1.54,2.03,3.35,1.92,5.43-.11,2.08-.95,3.81-2.52,5.2-1.54,1.39-3.35,2.03-5.43,1.92-2.08-.11-3.81-.93-5.2-2.47s-2.03-3.35-1.92-5.43c.11-2.08.93-3.81,2.47-5.2,1.54-1.42,3.35-2.08,5.43-1.97ZM356.5,103.75l-1.87,36.13c-.17,3.22.1,5.3.8,6.25.7.92,2.14,1.5,4.31,1.74l-.09,1.75-24.62-1.28.09-1.76c2.02.04,3.54-.47,4.58-1.52.69-.71,1.12-2.68,1.28-5.9l1.38-26.62c.17-3.22-.1-5.29-.8-6.2-.7-.95-2.12-1.54-4.26-1.78l.09-1.8,19.12.99ZM411.89,86.03l-2.72,52.47c-.18,3.54-.2,5.65-.03,6.31.21,1.09.65,1.91,1.34,2.47.72.56,1.99.95,3.8,1.18l-.08,1.61-19.46,2.76.38-7.22c-2.45,2.68-4.62,4.47-6.49,5.38-1.84.91-3.9,1.31-6.17,1.2-5.82-.3-10.28-3.14-13.4-8.52-2.51-4.37-3.61-9.62-3.29-15.77.26-4.91,1.33-9.25,3.22-13.03,1.89-3.81,4.35-6.64,7.38-8.47,3.06-1.83,6.28-2.66,9.66-2.48,2.18.11,4.09.64,5.74,1.57,1.65.93,3.37,2.51,5.18,4.72l.71-13.75c.18-3.48.14-5.58-.11-6.31-.34-.96-.89-1.69-1.65-2.19-.76-.49-2.21-.8-4.35-.91l.11-2.05,20.24,1.05ZM396.63,116.24c-2.17-4.74-4.99-7.2-8.47-7.38-1.2-.06-2.21.21-3.02.82-1.26.95-2.34,2.67-3.25,5.16-.88,2.5-1.45,6.36-1.73,11.6-.3,5.75-.1,10.03.61,12.84.7,2.81,1.75,4.87,3.15,6.18.72.66,1.72,1.02,3.02,1.09,2.86.15,5.68-1.96,8.44-6.31l1.24-23.99Z"/>
</svg>