<svg width="148" height="104" viewBox="0 0 148 104" fill="none" xmlns="http://www.w3.org/2000/svg">
<path fill-rule="evenodd" clip-rule="evenodd" d="M138.5 19C143.747 19 148 14.7467 148 9.5C148 4.25329 143.747 0 138.5 0C133.253 0 129 4.25329 129 9.5C129 14.7467 133.253 19 138.5 19ZM134.502 31.6404L137.064 22.4529L132.248 21.1096L129.686 30.2971L134.502 31.6404ZM129.377 50.0154L131.939 40.8279L127.123 39.4846L124.561 48.6721L129.377 50.0154ZM124.252 68.3904L126.814 59.2029L121.998 57.8596L119.436 67.0471L124.252 68.3904ZM91.2874 87.1084L102.087 85.8584L101.513 80.8916L90.7126 82.1416L91.2874 87.1084ZM69.6874 89.6084L80.4874 88.3584L79.9126 83.3916L69.1126 84.6416L69.6874 89.6084ZM48.0874 92.1084L58.8874 90.8584L58.3126 85.8916L47.5126 87.1416L48.0874 92.1084ZM26.4874 94.6084L37.2874 93.3584L36.7126 88.3916L25.9126 89.6416L26.4874 94.6084ZM9.5 104C14.7467 104 19 99.7467 19 94.5C19 89.2533 14.7467 85 9.5 85C4.25329 85 0 89.2533 0 94.5C0 99.7467 4.25329 104 9.5 104ZM129 80.5C129 85.7467 124.747 90 119.5 90C114.253 90 110 85.7467 110 80.5C110 75.2533 114.253 71 119.5 71C124.747 71 129 75.2533 129 80.5Z" fill="#232321" fill-opacity="0.8"/>
</svg>
