<svg width="46" height="33" viewBox="0 0 46 33" fill="none" xmlns="http://www.w3.org/2000/svg">
<path d="M45.9862 11.7778C46.0885 8.8168 45.441 5.87796 44.1037 3.23414C43.1964 2.14932 41.9372 1.41724 40.5456 1.16546C34.7895 0.64317 29.0096 0.429101 23.2307 0.524169C17.4728 0.424786 11.7138 0.631948 5.9779 1.14477C4.84389 1.35106 3.79445 1.88297 2.95763 2.6756C1.09581 4.39261 0.888944 7.33014 0.682076 9.81256C0.381935 14.2759 0.381935 18.7543 0.682076 23.2176C0.741923 24.6148 0.949958 26.0017 1.30268 27.355C1.55211 28.3998 2.05676 29.3665 2.77145 30.1684C3.61395 31.003 4.68784 31.5652 5.85378 31.782C10.3137 32.3325 14.8075 32.5606 19.3002 32.4646C26.5406 32.5681 32.8915 32.4646 40.4008 31.8854C41.5954 31.6819 42.6995 31.1191 43.5659 30.2718C44.145 29.6924 44.5776 28.9832 44.8278 28.2031C45.5676 25.933 45.931 23.5571 45.9035 21.1696C45.9862 20.0112 45.9862 13.019 45.9862 11.7778ZM18.5555 22.4108V9.60569L30.8021 16.0393C27.3681 17.9425 22.8377 20.0939 18.5555 22.4108Z" fill="#232321"/>
</svg>
